<svg xmlns="http://www.w3.org/2000/svg" width="178.999" height="57.198" viewBox="0 0 178.999 57.198">
  <g id="组_3207" data-name="组 3207" transform="translate(-168.387 -157.248)">
    <g id="组_3200" data-name="组 3200" transform="translate(238.944 165.483)">
      <g id="组_3199" data-name="组 3199" transform="translate(0 0)">
        <g id="组_3198" data-name="组 3198">
          <g id="组_3197" data-name="组 3197">
            <path id="路径_9067" data-name="路径 9067" d="M812.371,240.593h13.6v2.015h-13.6v-2.015Zm0,5.949h13.6v-1.991h-13.6Zm13.6,1.943h-13.6v1.969h13.6Zm-15.447-10.831a.47.47,0,0,0,.369-.18l.67-.851.008-.005,3.326-4.226H812a.471.471,0,0,0-.367.177q-2.037,2.541-4.07,5.086Zm13.314-5.263,3.479,5.059a.472.472,0,0,0,.387.2h2.77q-1.752-2.529-3.5-5.06a.47.47,0,0,0-.387-.2h-2.749Zm24.847,0h-.693a.473.473,0,0,0-.306.113l-.677.581h0l-.262.225-7.572,6.5h3.645a.706.706,0,0,0,.455-.167l.742-.626,7.855-6.627h-3.186Zm-8.234,9.884,2.643,2.69.879.9h0l.592.6,4.379,4.457h0l.94.957a.7.7,0,0,0,.5.212h3.684l-9.658-9.814h8.526a.471.471,0,0,0,.47-.471V240.38h-15.9v-8.534h-2.606v8.534h-3.151v1.9h3.151v9.339a.831.831,0,0,0,.831.83H839.6a.47.47,0,0,0,.47-.47v-1.592H837.42v-8.107h3.029Zm37.871-8.387v-1.5h-11.61v1.967h2.561L865.455,248.7h2.1a.7.7,0,0,0,.684-.536l.163-.647,2.906-10.895V252.4H873.4a.471.471,0,0,0,.47-.47V236.54h-2.538l.581-2.181h5.94A.471.471,0,0,0,878.321,233.888Zm-3.448,4.406,1.581,9.845.029.176a.488.488,0,0,0,.479.41h2.017s-1.3-8.084-1.611-10.035a.49.49,0,0,0-.477-.4Zm-18.5,12.824h1.879a.471.471,0,0,0,.471-.447q.332-6.438.662-12.877h-1.83a.47.47,0,0,0-.47.445l-.018.322Zm6.15-19.272h-2.512v2.536h-3.484V236.3h3.484V252.4h2.042a.47.47,0,0,0,.47-.47V236.3h2.891v-1.921h-2.891Zm.615,14.46h1.806a.47.47,0,0,0,.47-.47V237.8h-2.276Zm-39.425-9.984a.471.471,0,0,0,.312-.443v-1.922l-1.673.6c-.091.037-1.316.474-1.992.715v-3.421h-2.678v4.3l-9.764,3.6a.471.471,0,0,0-.307.441v2.081l2.086-.771v10.066a.831.831,0,0,0,.831.831h17.292a.831.831,0,0,0,.83-.831V239.48a.831.831,0,0,0-.83-.831H817.409Z" transform="translate(-807.565 -231.846)" fill="#fff" fill-rule="evenodd"/>
          </g>
        </g>
      </g>
    </g>
    <g id="组_3203" data-name="组 3203" transform="translate(168.387 157.248)">
      <path id="路径_9068" data-name="路径 9068" d="M224.873,358.531l-5.572-5.573-21.836,21.836-21.836-21.836-5.572,5.573a5.7,5.7,0,0,0,0,8.061l20.551,20.551a4.81,4.81,0,0,0,6.8,0l.055-.055.055.055a4.81,4.81,0,0,0,6.8,0l20.551-20.551A5.7,5.7,0,0,0,224.873,358.531Zm-49.575-.984.326-.725,1.464,1.464,19.6,19.591L194.562,380l-18.368-18.368-.188-.188A3.5,3.5,0,0,1,175.3,357.546ZM197,383.314l-.429.428a3.892,3.892,0,0,1-5.505,0L191,383.68l-18.429-18.428-.188-.188a3.5,3.5,0,0,1-.708-3.9l.327-.725,1.465,1.464,19.25,19.244a1.557,1.557,0,0,0,2.2,0l.366-.366.029-.027L197,379.072Zm.839-5.081,3.182-3.182,18.211-18.212.327.725a3.5,3.5,0,0,1-.708,3.9l-15.7,15.7-3.589,3.59h0l-1.722,1.723Zm24.637-13.145-18.66,18.66a3.892,3.892,0,0,1-5.506,0l-.118-.118,2.181-2.181a1.558,1.558,0,0,0,1.794-.294l20.689-20.69.326.725A3.5,3.5,0,0,1,222.475,365.088Z" transform="translate(-168.387 -331.354)" fill="#fff"/>
      <g id="组_3202" data-name="组 3202" transform="translate(10.768)">
        <g id="组_3201" data-name="组 3201">
          <path id="路径_9070" data-name="路径 9070" d="M284.467,157.248v5.981a.761.761,0,0,1-.218.53l-11.807,11.81a.75.75,0,0,1-.53.221H265.93Z" transform="translate(-265.93 -157.248)" fill="#fff"/>
          <path id="路径_9071" data-name="路径 9071" d="M283.677,351.986l-.318-.318-6.189-6.189-9.961-9.958-.027-.028-1.253-1.253h5.981a.748.748,0,0,1,.53.22l11.018,11.016a.76.76,0,0,1,.218.53Z" transform="translate(-265.93 -314.702)" fill="#fff"/>
          <path id="路径_9072" data-name="路径 9072" d="M362.154,218.453l1.115,1.114a.76.76,0,0,1,.218.53v5.981l-.318-.318c-2.494-2.494-5.032-5.034-7.526-7.527l1.253-1.253.027-.028,5.759-5.759,6.47-6.478.318-.318v5.98a.757.757,0,0,1-.219.53l-6.8,6.808-.517.517Z" transform="translate(-345.739 -199.192)" fill="#fff"/>
          <path id="路径_9073" data-name="路径 9073" d="M452.219,335.533l-.026.028-9.961,9.958-6.189,6.189-.318.318v-5.98a.76.76,0,0,1,.218-.53L446.961,334.5a.747.747,0,0,1,.53-.22h5.981Z" transform="translate(-416.982 -314.738)" fill="#fff"/>
          <path id="路径_9074" data-name="路径 9074" d="M447.524,263.562a.751.751,0,0,1-.529-.221l-1.339-1.336-.14.142-2.473,2.474-.038.035-.741.741-6.19,6.189-.318.318v-5.981a.757.757,0,0,1,.219-.53l6.316-6.314.019-.019,2.819-2.818.02-.02.171-.17a.476.476,0,0,1,.338-.143.486.486,0,0,1,.34.143l2.8,2.807,3.421,3.423.01.01,1.27,1.27Z" transform="translate(-417.009 -245.019)" fill="#fff"/>
        </g>
      </g>
    </g>
    <g id="组_3204" data-name="组 3204" transform="translate(239.085 198.984)">
      <path id="路径_9075" data-name="路径 9075" d="M812.557,538.372a1.272,1.272,0,0,1-1.8.028c-.331-.331-.326-.7-.326-1.351s0-1.021.326-1.351a1.2,1.2,0,0,1,.883-.359,1.27,1.27,0,0,1,1.016.444l-.345.345a.852.852,0,0,0-.671-.331.687.687,0,0,0-.5.208c-.165.18-.2.369-.2,1.044s.033.869.2,1.049a.683.683,0,0,0,.5.2.693.693,0,0,0,.539-.236.778.778,0,0,0,.165-.534v-.184h-.7v-.435h1.214v.506A1.27,1.27,0,0,1,812.557,538.372Z" transform="translate(-810.256 -535.339)" fill="#fff"/>
      <path id="路径_9076" data-name="路径 9076" d="M839.962,538.4a1.272,1.272,0,0,1-1.772,0c-.331-.331-.326-.7-.326-1.351s0-1.021.326-1.351a1.272,1.272,0,0,1,1.772,0c.331.331.321.7.321,1.351S840.292,538.07,839.962,538.4Zm-.387-2.4a.708.708,0,0,0-1,0c-.165.18-.2.369-.2,1.044s.033.865.2,1.044a.707.707,0,0,0,1,0c.165-.18.2-.368.2-1.044S839.74,536.185,839.574,536.005Z" transform="translate(-834.661 -535.339)" fill="#fff"/>
      <path id="路径_9077" data-name="路径 9077" d="M863.933,538.96h-.4l-1.106-3.364h.529l.775,2.447.775-2.447h.539Z" transform="translate(-856.516 -535.568)" fill="#fff"/>
      <path id="路径_9078" data-name="路径 9078" d="M890.336,538.96V535.6h2.15v.458h-1.64v.983h1.4v.453h-1.4V538.5h1.64v.458Z" transform="translate(-881.341 -535.568)" fill="#fff"/>
      <path id="路径_9079" data-name="路径 9079" d="M918,538.96l-.709-1.417h-.638v1.417h-.51V535.6h1.3a.962.962,0,0,1,1.044.983.883.883,0,0,1-.671.893l.775,1.488Zm-.591-2.906h-.756v1.054h.756a.529.529,0,1,0,0-1.054Z" transform="translate(-904.3 -535.568)" fill="#fff"/>
      <path id="路径_9080" data-name="路径 9080" d="M946.242,538.96l-1.555-2.367v2.367h-.51V535.6h.468l1.554,2.362V535.6h.51v3.364Z" transform="translate(-929.238 -535.568)" fill="#fff"/>
      <path id="路径_9081" data-name="路径 9081" d="M976.061,538.4a1.272,1.272,0,0,1-1.772,0c-.331-.331-.326-.7-.326-1.351s0-1.021.326-1.351a1.272,1.272,0,0,1,1.772,0c.331.331.321.7.321,1.351S976.391,538.07,976.061,538.4Zm-.387-2.4a.708.708,0,0,0-1,0c-.165.18-.2.369-.2,1.044s.033.865.2,1.044a.707.707,0,0,0,1,0c.165-.18.2-.368.2-1.044S975.839,536.185,975.673,536.005Z" transform="translate(-955.737 -535.339)" fill="#fff"/>
      <path id="路径_9082" data-name="路径 9082" d="M1004.582,538.96l-.709-1.417h-.638v1.417h-.51V535.6h1.3a.962.962,0,0,1,1.044.983.883.883,0,0,1-.671.893l.775,1.488Zm-.591-2.906h-.756v1.054h.756a.529.529,0,1,0,0-1.054Z" transform="translate(-981.323 -535.568)" fill="#fff"/>
      <path id="路径_9083" data-name="路径 9083" d="M1041.125,538.76a1.219,1.219,0,0,1-.883-.359c-.331-.331-.326-.7-.326-1.351s0-1.021.326-1.351a1.219,1.219,0,0,1,.883-.359,1.24,1.24,0,0,1,.94.4l-.34.345a.763.763,0,0,0-.6-.283.672.672,0,0,0-.5.2c-.165.18-.2.373-.2,1.049s.033.869.2,1.049a.672.672,0,0,0,.5.2.763.763,0,0,0,.6-.284l.34.345A1.24,1.24,0,0,1,1041.125,538.76Z" transform="translate(-1014.408 -535.339)" fill="#fff"/>
      <path id="路径_9084" data-name="路径 9084" d="M1066.329,538.988a1.141,1.141,0,0,1-1.2-1.162V535.6h.51V537.8a.7.7,0,1,0,1.394,0V535.6h.51v2.23A1.144,1.144,0,0,1,1066.329,538.988Z" transform="translate(-1036.834 -535.568)" fill="#fff"/>
      <path id="路径_9085" data-name="路径 9085" d="M1095.76,537.637h-.765v1.323h-.51V535.6h1.276a1.022,1.022,0,1,1,0,2.041Zm-.028-1.583h-.737v1.12h.737a.561.561,0,1,0,0-1.12Z" transform="translate(-1062.953 -535.568)" fill="#fff"/>
      <path id="路径_9086" data-name="路径 9086" d="M811.544,590.319v-3.364h.51v3.364Z" transform="translate(-811.246 -581.257)" fill="#fff"/>
      <path id="路径_9087" data-name="路径 9087" d="M826.191,590.319l-1.554-2.367v2.367h-.51v-3.364h.468l1.554,2.362v-2.362h.51v3.364Z" transform="translate(-822.439 -581.257)" fill="#fff"/>
      <path id="路径_9088" data-name="路径 9088" d="M857.077,590a1.2,1.2,0,0,1-.869.316h-1.181v-3.364h1.181a1.2,1.2,0,0,1,.869.317,1.739,1.739,0,0,1,.34,1.342A1.853,1.853,0,0,1,857.077,590Zm-.349-2.362a.728.728,0,0,0-.572-.227h-.619v2.447h.619a.728.728,0,0,0,.572-.227,1.632,1.632,0,0,0,.18-1.021C856.907,588.15,856.9,587.834,856.728,587.64Z" transform="translate(-849.929 -581.257)" fill="#fff"/>
      <path id="路径_9089" data-name="路径 9089" d="M884.264,590.347a1.14,1.14,0,0,1-1.2-1.162v-2.23h.51v2.206a.7.7,0,1,0,1.394,0v-2.206h.51v2.23A1.144,1.144,0,0,1,884.264,590.347Z" transform="translate(-874.867 -581.257)" fill="#fff"/>
      <path id="路径_9090" data-name="路径 9090" d="M910.913,590.119a1.523,1.523,0,0,1-1.191-.444l.34-.336a1.111,1.111,0,0,0,.86.321c.439,0,.694-.189.694-.515a.453.453,0,0,0-.132-.35.585.585,0,0,0-.369-.142l-.4-.057a1.151,1.151,0,0,1-.638-.269.837.837,0,0,1-.246-.643.994.994,0,0,1,1.125-.987,1.4,1.4,0,0,1,1.044.383l-.326.322a.988.988,0,0,0-.732-.26c-.4,0-.614.227-.614.524a.4.4,0,0,0,.128.312.75.75,0,0,0,.378.156l.383.057a1.114,1.114,0,0,1,.629.25.88.88,0,0,1,.274.69C912.122,589.75,911.617,590.119,910.913,590.119Z" transform="translate(-898.587 -581.029)" fill="#fff"/>
      <path id="路径_9091" data-name="路径 9091" d="M936.41,587.413v2.906h-.51v-2.906h-.926v-.458h2.362v.458Z" transform="translate(-921.051 -581.257)" fill="#fff"/>
      <path id="路径_9092" data-name="路径 9092" d="M963.494,590.319l-.709-1.417h-.638v1.417h-.51v-3.364h1.3a.962.962,0,0,1,1.044.983.884.884,0,0,1-.671.893l.775,1.488Zm-.59-2.906h-.756v1.054h.756a.529.529,0,1,0,0-1.054Z" transform="translate(-944.771 -581.257)" fill="#fff"/>
      <path id="路径_9093" data-name="路径 9093" d="M989.67,590.319v-3.364h.51v3.364Z" transform="translate(-969.71 -581.257)" fill="#fff"/>
      <path id="路径_9094" data-name="路径 9094" d="M1000.948,590.319l-.232-.676h-1.328l-.232.676h-.543l1.233-3.364h.411l1.233,3.364Zm-.884-2.6-.524,1.493h1.035Z" transform="translate(-977.666 -581.257)" fill="#fff"/>
      <path id="路径_9095" data-name="路径 9095" d="M1029,590.319v-3.364h.51v2.906h1.621v.458Z" transform="translate(-1004.699 -581.257)" fill="#fff"/>
      <path id="路径_9096" data-name="路径 9096" d="M1065.889,590a1.2,1.2,0,0,1-.869.316h-1.181v-3.364h1.181a1.2,1.2,0,0,1,.869.317,1.74,1.74,0,0,1,.34,1.342A1.853,1.853,0,0,1,1065.889,590Zm-.35-2.362a.727.727,0,0,0-.572-.227h-.619v2.447h.619a.728.728,0,0,0,.572-.227,1.632,1.632,0,0,0,.18-1.021C1065.719,588.15,1065.715,587.834,1065.54,587.64Z" transform="translate(-1035.691 -581.257)" fill="#fff"/>
      <path id="路径_9097" data-name="路径 9097" d="M1092.342,590.319v-3.364h2.15v.458h-1.64v.983h1.4v.454h-1.4v1.011h1.64v.458Z" transform="translate(-1061.048 -581.257)" fill="#fff"/>
      <path id="路径_9098" data-name="路径 9098" d="M1116.644,590.119a1.524,1.524,0,0,1-1.191-.444l.34-.336a1.111,1.111,0,0,0,.86.321c.439,0,.695-.189.695-.515a.453.453,0,0,0-.132-.35.585.585,0,0,0-.369-.142l-.4-.057a1.15,1.15,0,0,1-.638-.269.837.837,0,0,1-.246-.643.994.994,0,0,1,1.124-.987,1.4,1.4,0,0,1,1.044.383l-.326.322a.988.988,0,0,0-.732-.26c-.4,0-.614.227-.614.524a.4.4,0,0,0,.128.312.751.751,0,0,0,.378.156l.383.057a1.112,1.112,0,0,1,.628.25.88.88,0,0,1,.274.69C1117.853,589.75,1117.348,590.119,1116.644,590.119Z" transform="translate(-1081.608 -581.029)" fill="#fff"/>
      <path id="路径_9099" data-name="路径 9099" d="M1143.4,590.319v-3.364h.51v3.364Z" transform="translate(-1106.471 -581.257)" fill="#fff"/>
      <path id="路径_9100" data-name="路径 9100" d="M1157,589.731a1.272,1.272,0,0,1-1.8.028c-.331-.331-.326-.7-.326-1.351s0-1.021.326-1.351a1.2,1.2,0,0,1,.883-.359,1.27,1.27,0,0,1,1.016.444l-.345.345a.852.852,0,0,0-.671-.331.687.687,0,0,0-.5.208c-.165.18-.2.369-.2,1.044s.033.869.2,1.049a.684.684,0,0,0,.5.2.693.693,0,0,0,.539-.236.777.777,0,0,0,.165-.534v-.184h-.7v-.435h1.214v.506A1.269,1.269,0,0,1,1157,589.731Z" transform="translate(-1116.674 -581.029)" fill="#fff"/>
      <path id="路径_9101" data-name="路径 9101" d="M1185.482,590.319l-1.554-2.367v2.367h-.51v-3.364h.468l1.554,2.362v-2.362h.51v3.364Z" transform="translate(-1142.069 -581.257)" fill="#fff"/>
      <path id="路径_9102" data-name="路径 9102" d="M1224.684,590.119a1.219,1.219,0,0,1-.883-.359c-.331-.331-.326-.7-.326-1.351s0-1.021.326-1.351a1.219,1.219,0,0,1,.883-.359,1.24,1.24,0,0,1,.94.4l-.34.345a.763.763,0,0,0-.6-.283.672.672,0,0,0-.5.2c-.165.18-.2.373-.2,1.049s.033.869.2,1.049a.673.673,0,0,0,.5.2.763.763,0,0,0,.6-.284l.34.345A1.239,1.239,0,0,1,1224.684,590.119Z" transform="translate(-1177.706 -581.029)" fill="#fff"/>
      <path id="路径_9103" data-name="路径 9103" d="M1249.027,589.76a1.272,1.272,0,0,1-1.772,0c-.331-.331-.326-.7-.326-1.351s0-1.021.326-1.351a1.272,1.272,0,0,1,1.772,0c.331.331.321.7.321,1.351S1249.358,589.429,1249.027,589.76Zm-.387-2.4a.707.707,0,0,0-1,0c-.165.18-.2.369-.2,1.044s.033.865.2,1.044a.707.707,0,0,0,1,0c.165-.18.2-.368.2-1.044S1248.8,587.544,1248.639,587.364Z" transform="translate(-1198.57 -581.029)" fill="#fff"/>
      <path id="路径_9104" data-name="路径 9104" d="M1278.147,590.319V588.07l-.775,1.64h-.378l-.794-1.64v2.249h-.51v-3.364h.51l.983,2.093.964-2.093h.51v3.364Z" transform="translate(-1224.157 -581.257)" fill="#fff"/>
      <path id="路径_9105" data-name="路径 9105" d="M1311.761,589H1311v1.323h-.51v-3.364h1.276a1.022,1.022,0,1,1,0,2.041Zm-.028-1.583H1311v1.12h.737a.561.561,0,1,0,0-1.12Z" transform="translate(-1255.111 -581.257)" fill="#fff"/>
      <path id="路径_9106" data-name="路径 9106" d="M1337.405,590.319v-3.364h2.15v.458h-1.64v.983h1.4v.454h-1.4v1.011h1.64v.458Z" transform="translate(-1279.059 -581.257)" fill="#fff"/>
      <path id="路径_9107" data-name="路径 9107" d="M1361.952,587.413v2.906h-.51v-2.906h-.926v-.458h2.362v.458Z" transform="translate(-1299.619 -581.257)" fill="#fff"/>
      <path id="路径_9108" data-name="路径 9108" d="M1387.18,590.319v-3.364h.51v3.364Z" transform="translate(-1323.34 -581.257)" fill="#fff"/>
      <path id="路径_9109" data-name="路径 9109" d="M1398.5,587.413v2.906h-.51v-2.906h-.926v-.458h2.362v.458Z" transform="translate(-1332.134 -581.257)" fill="#fff"/>
      <path id="路径_9110" data-name="路径 9110" d="M1423.729,590.319v-3.364h.51v3.364Z" transform="translate(-1355.854 -581.257)" fill="#fff"/>
      <path id="路径_9111" data-name="路径 9111" d="M1437.3,589.76a1.272,1.272,0,0,1-1.771,0c-.331-.331-.326-.7-.326-1.351s0-1.021.326-1.351a1.272,1.272,0,0,1,1.771,0c.331.331.322.7.322,1.351S1437.626,589.429,1437.3,589.76Zm-.387-2.4a.707.707,0,0,0-1,0c-.165.18-.2.369-.2,1.044s.033.865.2,1.044a.707.707,0,0,0,1,0c.165-.18.2-.368.2-1.044S1437.074,587.544,1436.908,587.364Z" transform="translate(-1366.057 -581.029)" fill="#fff"/>
      <path id="路径_9112" data-name="路径 9112" d="M1466.024,590.319l-1.554-2.367v2.367h-.51v-3.364h.468l1.554,2.362v-2.362h.51v3.364Z" transform="translate(-1391.643 -581.257)" fill="#fff"/>
      <path id="路径_9113" data-name="路径 9113" d="M1506.116,589.76a1.272,1.272,0,0,1-1.772,0c-.331-.331-.326-.7-.326-1.351s0-1.021.326-1.351a1.272,1.272,0,0,1,1.772,0c.331.331.321.7.321,1.351S1506.447,589.429,1506.116,589.76Zm-.387-2.4a.707.707,0,0,0-1,0c-.165.18-.2.369-.2,1.044s.033.865.2,1.044a.707.707,0,0,0,1,0c.166-.18.2-.368.2-1.044S1505.894,587.544,1505.728,587.364Z" transform="translate(-1427.28 -581.029)" fill="#fff"/>
      <path id="路径_9114" data-name="路径 9114" d="M1533.289,587.413v1.025h1.4v.458h-1.4v1.422h-.51v-3.364h2.15v.458Z" transform="translate(-1452.866 -581.257)" fill="#fff"/>
      <path id="路径_9115" data-name="路径 9115" d="M1566.582,590.119a1.523,1.523,0,0,1-1.191-.444l.34-.336a1.11,1.11,0,0,0,.86.321c.439,0,.694-.189.694-.515a.453.453,0,0,0-.132-.35.585.585,0,0,0-.369-.142l-.4-.057a1.151,1.151,0,0,1-.638-.269.837.837,0,0,1-.246-.643.994.994,0,0,1,1.125-.987,1.4,1.4,0,0,1,1.044.383l-.326.322a.988.988,0,0,0-.732-.26c-.4,0-.614.227-.614.524a.4.4,0,0,0,.128.312.751.751,0,0,0,.378.156l.383.057a1.113,1.113,0,0,1,.629.25.88.88,0,0,1,.274.69C1567.791,589.75,1567.286,590.119,1566.582,590.119Z" transform="translate(-1481.878 -581.029)" fill="#fff"/>
      <path id="路径_9116" data-name="路径 9116" d="M1595.214,590.319V588.85h-1.365v1.469h-.51v-3.364h.51v1.436h1.365v-1.436h.51v3.364Z" transform="translate(-1506.74 -581.257)" fill="#fff"/>
      <path id="路径_9117" data-name="路径 9117" d="M1621.608,590.319l-.231-.676h-1.328l-.231.676h-.543l1.233-3.364h.411l1.233,3.364Zm-.884-2.6-.524,1.493h1.035Z" transform="translate(-1529.814 -581.257)" fill="#fff"/>
      <path id="路径_9118" data-name="路径 9118" d="M1651.725,590.319l-1.554-2.367v2.367h-.51v-3.364h.468l1.554,2.362v-2.362h.51v3.364Z" transform="translate(-1556.845 -581.257)" fill="#fff"/>
      <path id="路径_9119" data-name="路径 9119" d="M1682.612,590a1.2,1.2,0,0,1-.869.316h-1.181v-3.364h1.181a1.2,1.2,0,0,1,.869.317,1.74,1.74,0,0,1,.34,1.342A1.853,1.853,0,0,1,1682.612,590Zm-.35-2.362a.728.728,0,0,0-.572-.227h-.619v2.447h.619a.728.728,0,0,0,.572-.227,1.632,1.632,0,0,0,.179-1.021C1682.441,588.15,1682.437,587.834,1682.262,587.64Z" transform="translate(-1584.335 -581.257)" fill="#fff"/>
      <path id="路径_9120" data-name="路径 9120" d="M1710.048,589.76a1.272,1.272,0,0,1-1.772,0c-.331-.331-.326-.7-.326-1.351s0-1.021.326-1.351a1.272,1.272,0,0,1,1.772,0c.331.331.321.7.321,1.351S1710.378,589.429,1710.048,589.76Zm-.387-2.4a.707.707,0,0,0-1,0c-.165.18-.2.369-.2,1.044s.033.865.2,1.044a.707.707,0,0,0,1,0c.165-.18.2-.368.2-1.044S1709.826,587.544,1709.66,587.364Z" transform="translate(-1608.701 -581.029)" fill="#fff"/>
      <path id="路径_9121" data-name="路径 9121" d="M1738.777,590.319l-1.554-2.367v2.367h-.51v-3.364h.468l1.554,2.362v-2.362h.51v3.364Z" transform="translate(-1634.288 -581.257)" fill="#fff"/>
      <path id="路径_9122" data-name="路径 9122" d="M1768.624,589.731a1.272,1.272,0,0,1-1.8.028c-.331-.331-.326-.7-.326-1.351s0-1.021.326-1.351a1.2,1.2,0,0,1,.883-.359,1.27,1.27,0,0,1,1.016.444l-.345.345a.852.852,0,0,0-.671-.331.687.687,0,0,0-.5.208c-.165.18-.2.369-.2,1.044s.033.869.2,1.049a.683.683,0,0,0,.5.2.693.693,0,0,0,.539-.236.778.778,0,0,0,.165-.534v-.184h-.7v-.435h1.214v.506A1.269,1.269,0,0,1,1768.624,589.731Z" transform="translate(-1660.786 -581.029)" fill="#fff"/>
      <path id="路径_9123" data-name="路径 9123" d="M810.284,638.771v2.906h-.51v-2.906h-.926v-.458h2.362v.458Z" transform="translate(-808.848 -626.946)" fill="#fff"/>
      <path id="路径_9124" data-name="路径 9124" d="M835.511,641.677v-3.364h2.15v.458h-1.64v.983h1.4v.454h-1.4v1.011h1.64v.458Z" transform="translate(-832.568 -626.946)" fill="#fff"/>
      <path id="路径_9125" data-name="路径 9125" d="M859.812,641.677l-.733-1.29-.728,1.29h-.586l1.039-1.725-.973-1.639h.586l.661,1.2.666-1.2h.586l-.973,1.639,1.044,1.725Z" transform="translate(-852.366 -626.946)" fill="#fff"/>
      <path id="路径_9126" data-name="路径 9126" d="M884.8,638.771v2.906h-.51v-2.906h-.926v-.458h2.362v.458Z" transform="translate(-875.135 -626.946)" fill="#fff"/>
      <path id="路径_9127" data-name="路径 9127" d="M910.023,641.677v-3.364h.51v3.364Z" transform="translate(-898.855 -626.946)" fill="#fff"/>
      <path id="路径_9128" data-name="路径 9128" d="M922.606,641.677v-3.364h.51v2.906h1.62v.458Z" transform="translate(-910.049 -626.946)" fill="#fff"/>
      <path id="路径_9129" data-name="路径 9129" d="M947.172,641.677v-3.364h2.15v.458h-1.64v.983h1.4v.454h-1.4v1.011h1.64v.458Z" transform="translate(-931.903 -626.946)" fill="#fff"/>
      <path id="路径_9130" data-name="路径 9130" d="M981.947,641.677l-.232-.676h-1.328l-.232.676h-.543l1.233-3.364h.411l1.233,3.364Zm-.884-2.6-.524,1.493h1.035Z" transform="translate(-960.763 -626.946)" fill="#fff"/>
      <path id="路径_9131" data-name="路径 9131" d="M1012.064,641.677l-1.555-2.367v2.367H1010v-3.364h.468l1.554,2.362v-2.362h.51v3.364Z" transform="translate(-987.795 -626.946)" fill="#fff"/>
      <path id="路径_9132" data-name="路径 9132" d="M1042.95,641.36a1.2,1.2,0,0,1-.869.317H1040.9v-3.364h1.181a1.2,1.2,0,0,1,.869.317,1.739,1.739,0,0,1,.34,1.342A1.853,1.853,0,0,1,1042.95,641.36ZM1042.6,639a.728.728,0,0,0-.572-.227h-.619v2.447h.619a.727.727,0,0,0,.572-.227,1.631,1.631,0,0,0,.18-1.021C1042.781,639.508,1042.776,639.192,1042.6,639Z" transform="translate(-1015.284 -626.946)" fill="#fff"/>
      <path id="路径_9133" data-name="路径 9133" d="M1078.37,641.677l-.232-.676h-1.328l-.231.676h-.543l1.233-3.364h.411l1.233,3.364Zm-.884-2.6-.525,1.493H1078Z" transform="translate(-1046.542 -626.946)" fill="#fff"/>
      <path id="路径_9134" data-name="路径 9134" d="M1107.7,640.354h-.766v1.323h-.51v-3.364h1.276a1.022,1.022,0,1,1,0,2.041Zm-.028-1.583h-.737v1.12h.737a.561.561,0,1,0,0-1.12Z" transform="translate(-1073.575 -626.946)" fill="#fff"/>
      <path id="路径_9135" data-name="路径 9135" d="M1134.62,640.354h-.766v1.323h-.51v-3.364h1.276a1.022,1.022,0,1,1,0,2.041Zm-.028-1.583h-.737v1.12h.737a.561.561,0,1,0,0-1.12Z" transform="translate(-1097.524 -626.946)" fill="#fff"/>
      <path id="路径_9136" data-name="路径 9136" d="M1156.821,641.677l-.232-.676h-1.328l-.231.676h-.543l1.233-3.364h.411l1.233,3.364Zm-.884-2.6-.524,1.493h1.035Z" transform="translate(-1116.333 -626.946)" fill="#fff"/>
      <path id="路径_9137" data-name="路径 9137" d="M1186.731,641.677l-.709-1.417h-.638v1.417h-.51v-3.364h1.3a.962.962,0,0,1,1.044.983.884.884,0,0,1-.671.893l.775,1.488Zm-.591-2.906h-.756v1.053h.756a.529.529,0,1,0,0-1.053Z" transform="translate(-1143.366 -626.946)" fill="#fff"/>
      <path id="路径_9138" data-name="路径 9138" d="M1212.906,641.677v-3.364h2.15v.458h-1.639v.983h1.4v.454h-1.4v1.011h1.639v.458Z" transform="translate(-1168.303 -626.946)" fill="#fff"/>
      <path id="路径_9139" data-name="路径 9139" d="M1238.714,641.677v-3.364h.51v2.906h1.621v.458Z" transform="translate(-1191.262 -626.946)" fill="#fff"/>
      <path id="路径_9140" data-name="路径 9140" d="M1275.6,641.36a1.2,1.2,0,0,1-.869.317h-1.181v-3.364h1.181a1.2,1.2,0,0,1,.869.317,1.74,1.74,0,0,1,.34,1.342A1.854,1.854,0,0,1,1275.6,641.36Zm-.35-2.362a.728.728,0,0,0-.572-.227h-.619v2.447h.619a.728.728,0,0,0,.572-.227,1.631,1.631,0,0,0,.18-1.021C1275.432,639.508,1275.428,639.192,1275.253,639Z" transform="translate(-1222.255 -626.946)" fill="#fff"/>
      <path id="路径_9141" data-name="路径 9141" d="M1302.055,641.677v-3.364h.51v3.364Z" transform="translate(-1247.611 -626.946)" fill="#fff"/>
      <path id="路径_9142" data-name="路径 9142" d="M1312.373,641.677h-.4l-1.106-3.364h.529l.775,2.447.775-2.447h.538Z" transform="translate(-1255.454 -626.946)" fill="#fff"/>
      <path id="路径_9143" data-name="路径 9143" d="M1338.776,641.677v-3.364h.51v3.364Z" transform="translate(-1280.279 -626.946)" fill="#fff"/>
      <path id="路径_9144" data-name="路径 9144" d="M1349.853,641.477a1.523,1.523,0,0,1-1.191-.444l.34-.335a1.111,1.111,0,0,0,.86.321c.439,0,.695-.189.695-.515a.453.453,0,0,0-.132-.35.584.584,0,0,0-.369-.142l-.4-.057a1.152,1.152,0,0,1-.638-.269.837.837,0,0,1-.245-.643.994.994,0,0,1,1.124-.987,1.4,1.4,0,0,1,1.044.383l-.326.321a.988.988,0,0,0-.732-.26c-.4,0-.614.227-.614.524a.4.4,0,0,0,.128.312.753.753,0,0,0,.378.156l.383.057a1.113,1.113,0,0,1,.628.25.88.88,0,0,1,.274.69C1351.062,641.108,1350.557,641.477,1349.853,641.477Z" transform="translate(-1289.073 -626.717)" fill="#fff"/>
      <path id="路径_9145" data-name="路径 9145" d="M1376.61,641.677v-3.364h.51v3.364Z" transform="translate(-1313.936 -626.946)" fill="#fff"/>
      <path id="路径_9146" data-name="路径 9146" d="M1390.176,641.118a1.272,1.272,0,0,1-1.771,0c-.331-.331-.326-.7-.326-1.351s0-1.021.326-1.351a1.272,1.272,0,0,1,1.771,0c.331.331.321.7.321,1.351S1390.507,640.787,1390.176,641.118Zm-.387-2.4a.707.707,0,0,0-1,0c-.165.18-.2.369-.2,1.044s.033.865.2,1.044a.707.707,0,0,0,1,0c.166-.18.2-.369.2-1.044S1389.954,638.9,1389.788,638.722Z" transform="translate(-1324.139 -626.717)" fill="#fff"/>
      <path id="路径_9147" data-name="路径 9147" d="M1418.9,641.677l-1.554-2.367v2.367h-.51v-3.364h.468l1.554,2.362v-2.362h.51v3.364Z" transform="translate(-1349.726 -626.946)" fill="#fff"/>
    </g>
    <g id="组_3205" data-name="组 3205" transform="translate(239.712 189.891)">
      <path id="路径_9148" data-name="路径 9148" d="M820.247,455.634v5.13h-.7v-.522h-5.029v-4.587h.7v3.9h1.8v-5.348h.71v5.348h1.826v-3.92Z" transform="translate(-814.523 -454.068)" fill="#fff"/>
      <path id="路径_9149" data-name="路径 9149" d="M879.83,457.562a6.674,6.674,0,0,1-1.4,2.029,4.33,4.33,0,0,0-.565-.435,4.865,4.865,0,0,0,1.29-1.775Zm1.826-.7v2.123c0,.37-.08.565-.333.674a2.988,2.988,0,0,1-1.145.13,3.03,3.03,0,0,0-.254-.688c.4.007.783.014.9.007s.152-.036.152-.138v-2.109h-1.543a1.631,1.631,0,0,0-.8.116,7,7,0,0,0-.254-.7c.188-.043.333-.239.565-.551a8.714,8.714,0,0,0,.609-.949h-1.623v-.645H879.9c.167-.319.319-.652.456-.985l.732.275c-.109.239-.232.478-.348.71H884v.645H880.38a13.909,13.909,0,0,1-.942,1.428h1.536v-.985h.681v.985h2.029v.652Zm1.065.514a10.721,10.721,0,0,1,1.471,1.783l-.609.326a10.927,10.927,0,0,0-1.427-1.833Z" transform="translate(-870.874 -453.134)" fill="#fff"/>
      <path id="路径_9150" data-name="路径 9150" d="M946.506,455.2a5.5,5.5,0,0,1-2.232,1.4H946.9v3.63h-.674v-.275h-3.072v.311h-.645V457.1c-.312.065-.63.123-.942.174a5.157,5.157,0,0,0-.42-.587,13.089,13.089,0,0,0,2.978-.674v-2.4h.667v2.094a3.506,3.506,0,0,0,1.08-.8Zm-3.087-1.007a5.979,5.979,0,0,1-1.384,1.855,3.647,3.647,0,0,0-.573-.4,4.357,4.357,0,0,0,1.3-1.645Zm2.8,2.927h-3.072v.435h3.072Zm-3.072,1.37h3.072v-.457h-3.072Zm3.072.949v-.471h-3.072v.471Zm-.051-5.493a8.75,8.75,0,0,1,1.58,1.572l-.58.384a8.234,8.234,0,0,0-1.529-1.616Z" transform="translate(-927.167 -453.543)" fill="#fff"/>
      <path id="路径_9151" data-name="路径 9151" d="M1014.516,465.306v.674h-6.485v-.674h2.833v-3.971h-2.449v-.7h5.724v.7h-2.522v3.971Z" transform="translate(-986.67 -459.791)" fill="#fff"/>
      <path id="路径_9152" data-name="路径 9152" d="M1080.5,459.939v.667h-6.37v-.667h1.949V454.4h.688v5.536h1.094V454.41h.688v5.529Zm-5.3-1.232a21.045,21.045,0,0,0-.927-2.616l.616-.2a25.143,25.143,0,0,1,.985,2.565Zm5.2-2.493a21.412,21.412,0,0,1-1.2,2.543l-.558-.29a14.743,14.743,0,0,0,1.145-2.551Z" transform="translate(-1045.474 -454.243)" fill="#fff"/>
      <path id="路径_9153" data-name="路径 9153" d="M1141.1,459.107a3.33,3.33,0,0,0,.246.558,12.669,12.669,0,0,0-1.623,1.348,2.188,2.188,0,0,0-.355-.565.878.878,0,0,0,.362-.674v-2.413h-.942v-.645h1.587v2.949Zm-.7-2.956a7.969,7.969,0,0,0-1.1-1.138l.435-.413a8.527,8.527,0,0,1,1.123,1.08Zm4.587,1.638a4.488,4.488,0,0,1-1.326,2.1,5.333,5.333,0,0,0,1.761.667,2.338,2.338,0,0,0-.413.6,5.609,5.609,0,0,1-1.9-.841,6.533,6.533,0,0,1-1.942.819,2.027,2.027,0,0,0-.326-.587,5.387,5.387,0,0,0,1.746-.659,5.018,5.018,0,0,1-1.109-1.565l.188-.065h-.435v-.63h3.232l.1-.022Zm-2.42-2.246a1.991,1.991,0,0,1-1.253,1.964,2.561,2.561,0,0,0-.435-.493,1.5,1.5,0,0,0,1.065-1.493v-.783h2.406v1.63c0,.2.015.275.123.275h.442a1.5,1.5,0,0,0,.362-.044c.007.174.029.413.051.565a1.34,1.34,0,0,1-.406.044h-.507c-.58,0-.7-.239-.7-.862v-.985h-1.145Zm-.464,2.717a3.906,3.906,0,0,0,1.029,1.261,3.732,3.732,0,0,0,1-1.261Z" transform="translate(-1102.992 -454.419)" fill="#fff"/>
      <path id="路径_9154" data-name="路径 9154" d="M1207.16,458.392a3.923,3.923,0,0,0,.21.609,11.453,11.453,0,0,0-1.739,1.34,2.449,2.449,0,0,0-.348-.63.753.753,0,0,0,.37-.63v-2.4h-1.094v-.667h1.782v2.949Zm-.841-2.942a10.1,10.1,0,0,0-1.152-1.13l.427-.435a8.788,8.788,0,0,1,1.181,1.072Zm4.833,1.362H1209.4v3.623h-.717v-3.623H1206.9v-.7h1.783v-2.3h.717v2.3h1.754Z" transform="translate(-1161.504 -453.718)" fill="#fff"/>
      <path id="路径_9155" data-name="路径 9155" d="M1273.836,456.312a5.112,5.112,0,0,0,2.775,3.3,2.668,2.668,0,0,0-.5.63,5.548,5.548,0,0,1-2.8-3.341,5.012,5.012,0,0,1-2.8,3.341,2.348,2.348,0,0,0-.514-.565,4.508,4.508,0,0,0,2.717-3.369h-2.572v-.7h2.7a18.2,18.2,0,0,0,.087-2h.732a18.309,18.309,0,0,1-.1,2h2.92v.7Z" transform="translate(-1219.724 -453.543)" fill="#fff"/>
      <path id="路径_9156" data-name="路径 9156" d="M1340.183,456.458a4.779,4.779,0,0,0,1.609.725,2.337,2.337,0,0,0-.413.522,4.392,4.392,0,0,1-.848-.377v1.246h-.637v-1.145h-2.913v1.2h-.616v-1.275a4.9,4.9,0,0,1-.913.42,2.578,2.578,0,0,0-.4-.493,5.372,5.372,0,0,0,1.7-.819h-1.5v-.485h1.79V455.6h-.942v-.377h.942v-.37H1336v-.391h1.043v-.3h.63v.3h1.493v-.3h.63v.3h1.036v.391H1339.8v.37h.964v.377h-.964v.377h1.8v.485Zm-1.37,1.138c-.261,1.3-.985,1.812-3.319,2.058a1.535,1.535,0,0,0-.261-.522c2.152-.174,2.7-.551,2.913-1.536Zm-2.877-2.942h-.616v-1.159h2.833a2.417,2.417,0,0,0-.181-.362l.667-.174a3.166,3.166,0,0,1,.283.536h2.609v1.159h-.638v-.638h-4.956Zm3.993,2.268a3.925,3.925,0,0,1-.507-.464h-1.913a4.573,4.573,0,0,1-.515.464Zm-2.254-1.7h1.493v-.37h-1.493Zm0,.754h1.493V455.6h-1.493Zm1.21,2.34a20.1,20.1,0,0,1,2.739.862l-.362.493a19.859,19.859,0,0,0-2.717-.942Z" transform="translate(-1277.593 -452.958)" fill="#fff"/>
      <path id="路径_9157" data-name="路径 9157" d="M1403,457.128a5.1,5.1,0,0,0,.022.594,10.26,10.26,0,0,0-2.275.485c-.036-.138-.138-.478-.21-.667a1.321,1.321,0,0,0,.565-.464,8.185,8.185,0,0,0,.638-.79,3.865,3.865,0,0,0-1.036.188,6.277,6.277,0,0,0-.21-.674c.138-.036.261-.2.413-.428a9.894,9.894,0,0,0,.971-1.942l.609.3a12.051,12.051,0,0,1-1.13,2.022l.8-.073a8.509,8.509,0,0,0,.478-.826l.543.4a13.379,13.379,0,0,1-1.536,2.087Zm.1,1.906c-.855.239-1.761.486-2.442.674l-.116-.681c.63-.138,1.587-.377,2.493-.609Zm1.775-3.732c-.015.326-.029.652-.051.964h1.949s-.007.2-.015.29c-.08,2.138-.167,2.927-.391,3.188a.683.683,0,0,1-.515.275,7.36,7.36,0,0,1-.913.007,1.56,1.56,0,0,0-.2-.645,7.722,7.722,0,0,0,.8.036.277.277,0,0,0,.261-.094,6.49,6.49,0,0,0,.3-2.427h-1.333a4.408,4.408,0,0,1-1.543,3.225,1.784,1.784,0,0,0-.471-.493c1.29-.92,1.4-2.58,1.442-4.326h-.855v-.645h1.638c-.073-.29-.21-.717-.319-1.043l.638-.2c.138.348.3.8.377,1.08l-.449.159h1.927v.645Z" transform="translate(-1335.812 -453.367)" fill="#fff"/>
      <path id="路径_9158" data-name="路径 9158" d="M1468.913,457.377a3.224,3.224,0,0,0-.007.587,10.733,10.733,0,0,0-2.369.551,3.059,3.059,0,0,0-.2-.594c.174-.036.341-.21.565-.464a8.756,8.756,0,0,0,.681-.87,3.959,3.959,0,0,0-1.087.2,5.282,5.282,0,0,0-.224-.638c.145-.036.268-.2.427-.442a9.566,9.566,0,0,0,.971-2.022l.645.3a11.628,11.628,0,0,1-1.174,2.109l.833-.08c.159-.246.319-.522.456-.782l.551.333a13.584,13.584,0,0,1-1.478,2.065Zm.015,1.956c-.877.217-1.783.442-2.485.63l-.123-.674c.63-.123,1.6-.333,2.536-.551Zm1.435-1.094a5.783,5.783,0,0,1-1.145,2.08,5.389,5.389,0,0,0-.6-.4,4.26,4.26,0,0,0,1.043-1.833Zm2.13-.8h-3.319v-3.282h3.319Zm-.7-2.638h-1.957v2h1.957Zm.109,3.261a9.991,9.991,0,0,1,.978,1.949l-.674.261a9.765,9.765,0,0,0-.935-1.978Z" transform="translate(-1394.324 -453.601)" fill="#fff"/>
      <path id="路径_9159" data-name="路径 9159" d="M1534.516,461.543c0,.326-.058.529-.261.638a2.037,2.037,0,0,1-.985.123,2.158,2.158,0,0,0-.181-.645c.3.014.587.007.681.007s.123-.036.123-.138V459.9h-.978a7.143,7.143,0,0,1-.522,2.42,2.262,2.262,0,0,0-.551-.312,8.787,8.787,0,0,0,.514-3.507v-2.587h2.159Zm-.623-2.282V458.2h-.927v.3c0,.232,0,.493-.014.761Zm-.927-2.725v1.029h.927v-1.029Zm5.449,1.971a6.229,6.229,0,0,1-.935,2.413,3.724,3.724,0,0,0,1.152.87,2.313,2.313,0,0,0-.435.522,4.057,4.057,0,0,1-1.1-.891,4.186,4.186,0,0,1-1.014.855,2.09,2.09,0,0,0-.391-.485v.514h-.638v-6.377h3.152v1.391c0,.311-.065.485-.319.572a3.866,3.866,0,0,1-1.174.094,2.354,2.354,0,0,0-.21-.572c.4.014.8.014.906.007s.152-.022.152-.109v-.754h-1.87v1.833h2.225l.109-.022Zm-2.725,3.268a3.45,3.45,0,0,0,1.029-.855,6.846,6.846,0,0,1-.9-1.913h-.131Zm.7-2.768a.85.85,0,1,0,1.3,0Z" transform="translate(-1452.659 -455.587)" fill="#fff"/>
      <path id="路径_9160" data-name="路径 9160" d="M1603.984,458.348a10.1,10.1,0,0,1-1.217.688,4.645,4.645,0,0,0,1.667.63,2.062,2.062,0,0,0-.377.551,4.115,4.115,0,0,1-3.007-2.268,4.81,4.81,0,0,1-1.072.732v.819l1.681-.341a2.962,2.962,0,0,0-.043.543,14.6,14.6,0,0,0-2.471.6,1.81,1.81,0,0,0-.218-.529.494.494,0,0,0,.4-.471v-.326a7.439,7.439,0,0,1-1.2.377,3.429,3.429,0,0,0-.377-.493,6.941,6.941,0,0,0,2.464-.92h-2.348V457.4h2.92c-.058-.145-.13-.29-.188-.406l.659-.189a4.539,4.539,0,0,1,.3.594h2.782v.543h-2.637a3.251,3.251,0,0,0,.638.775,10.263,10.263,0,0,0,1.167-.725Zm-4.594-2.319c-.5.232-1,.456-1.413.638l-.225-.551c.42-.159,1.029-.42,1.638-.688v-1.811h.623v3.406h-.623Zm-.573-.891a5.069,5.069,0,0,0-.884-.775l.4-.384a4.308,4.308,0,0,1,.9.732Zm3.116-.022H1600.3v-.58h1.638v-.92h.674v.92h1.638v.58h-1.638v1.014h1.5v.587h-3.6v-.587h1.427Z" transform="translate(-1511.288 -453.543)" fill="#fff"/>
      <path id="路径_9161" data-name="路径 9161" d="M1668.367,454.535a7.874,7.874,0,0,0,2.058,2.608,2.684,2.684,0,0,0-.536.573,5.488,5.488,0,0,1-.536-.544c0,.08,0,.181-.007.239-.094,2.174-.2,3.007-.435,3.29a.793.793,0,0,1-.6.282,7.964,7.964,0,0,1-1.123.007,1.6,1.6,0,0,0-.217-.674c.435.036.855.036,1.022.036a.385.385,0,0,0,.3-.087c.167-.167.254-.841.333-2.493h-1.775a3.589,3.589,0,0,1-2.493,3.326,2.141,2.141,0,0,0-.42-.587,2.933,2.933,0,0,0,2.2-2.739h-1.275V457.3a6.338,6.338,0,0,1-.514.486,3.944,3.944,0,0,0-.573-.522,6.108,6.108,0,0,0,1.993-2.71l.717.21a8.36,8.36,0,0,1-1.449,2.348h4.254a11.366,11.366,0,0,1-1.551-2.319Z" transform="translate(-1570.033 -454.361)" fill="#fff"/>
      <path id="路径_9162" data-name="路径 9162" d="M1734.026,456.458a4.782,4.782,0,0,0,1.609.725,2.334,2.334,0,0,0-.413.522,4.392,4.392,0,0,1-.848-.377v1.246h-.638v-1.145h-2.913v1.2h-.616v-1.275a4.9,4.9,0,0,1-.913.42,2.583,2.583,0,0,0-.4-.493,5.37,5.37,0,0,0,1.7-.819h-1.5v-.485h1.79V455.6h-.942v-.377h.942v-.37h-1.043v-.391h1.043v-.3h.63v.3h1.493v-.3h.63v.3h1.036v.391h-1.036v.37h.964v.377h-.964v.377h1.8v.485Zm-1.369,1.138c-.261,1.3-.986,1.812-3.319,2.058a1.54,1.54,0,0,0-.261-.522c2.152-.174,2.7-.551,2.913-1.536Zm-2.877-2.942h-.616v-1.159H1732a2.393,2.393,0,0,0-.181-.362l.667-.174a3.14,3.14,0,0,1,.283.536h2.609v1.159h-.638v-.638h-4.956Zm3.992,2.268a3.932,3.932,0,0,1-.507-.464h-1.913a4.592,4.592,0,0,1-.514.464Zm-2.253-1.7h1.493v-.37h-1.493Zm0,.754h1.493V455.6h-1.493Zm1.21,2.34a20.114,20.114,0,0,1,2.739.862l-.362.493a19.865,19.865,0,0,0-2.717-.942Z" transform="translate(-1627.961 -452.958)" fill="#fff"/>
    </g>
  </g>
</svg>
