<svg xmlns="http://www.w3.org/2000/svg" width="175" height="70.504" viewBox="0 0 175 70.504">
  <g id="组_3195" data-name="组 3195" transform="translate(-168.387 -157.248)">
    <g id="组_1051" data-name="组 1051" transform="translate(255.359 167.398)">
      <g id="组_1050" data-name="组 1050">
        <g id="组_1049" data-name="组 1049">
          <g id="组_1048" data-name="组 1048">
            <path id="路径_637" data-name="路径 637" d="M813.489,242.628h16.764v2.484H813.489v-2.484Zm0,7.333h16.764v-2.455H813.489Zm16.764,2.4H813.489v2.427h16.764Zm-19.041-13.351a.579.579,0,0,0,.455-.222l.826-1.049.01-.007,4.1-5.209h-3.567a.581.581,0,0,0-.453.218q-2.51,3.133-5.016,6.269Zm16.411-6.487,4.289,6.236a.582.582,0,0,0,.477.252H835.8q-2.16-3.118-4.316-6.237a.579.579,0,0,0-.477-.25h-3.388Zm30.628,0H857.4a.583.583,0,0,0-.377.139l-.835.716h0l-.323.277-9.334,8.013h4.494a.87.87,0,0,0,.56-.206l.914-.772,9.683-8.169H858.25ZM848.1,244.7l3.258,3.315,1.084,1.1h0l.73.743,5.4,5.494,0,0,1.159,1.179a.863.863,0,0,0,.621.261h4.541l-11.905-12.1H863.5a.58.58,0,0,0,.58-.58v-1.756h-19.6V231.846H841.27v10.519h-3.885V244.7h3.885v11.511a1.024,1.024,0,0,0,1.024,1.024h4.762a.58.58,0,0,0,.58-.58v-1.962h-3.27V244.7H848.1Zm46.682-10.339v-1.845H880.472v2.425h3.157l-4.705,17.678h2.589a.868.868,0,0,0,.843-.661l.2-.8,3.581-13.43v19.446h2.575a.58.58,0,0,0,.58-.58V237.631h-3.129l.717-2.688H894.2A.58.58,0,0,0,894.782,234.363Zm-4.25,5.431,1.949,12.135.035.217a.6.6,0,0,0,.591.505h2.486s-1.6-9.965-1.986-12.369a.6.6,0,0,0-.588-.487ZM867.723,255.6h2.316a.581.581,0,0,0,.58-.551q.409-7.936.816-15.872h-2.256a.58.58,0,0,0-.579.548l-.022.4Zm7.581-23.755h-3.1v3.127h-4.294v2.367h4.294v19.838h2.517a.58.58,0,0,0,.579-.58V237.34h3.563v-2.367H875.3Zm.758,17.824h2.226a.579.579,0,0,0,.579-.58v-9.91h-2.805Zm-48.6-12.306a.581.581,0,0,0,.385-.546v-2.369l-2.062.734c-.112.045-1.622.585-2.456.881v-4.217h-3.3v5.3L808,241.588a.581.581,0,0,0-.379.544V244.7l2.571-.95v12.408a1.025,1.025,0,0,0,1.024,1.024h21.316a1.024,1.024,0,0,0,1.023-1.024v-14.9a1.024,1.024,0,0,0-1.023-1.024H819.7Z" transform="translate(-807.565 -231.846)" fill="#fff" fill-rule="evenodd"/>
          </g>
        </g>
      </g>
    </g>
    <g id="组_1054" data-name="组 1054" transform="translate(168.387 157.248)">
      <path id="路径_638" data-name="路径 638" d="M238.014,359.827l-6.869-6.869L204.23,379.874l-26.916-26.916-6.869,6.869a7.026,7.026,0,0,0,0,9.937L195.777,395.1a5.929,5.929,0,0,0,8.385,0l.068-.068.067.068a5.93,5.93,0,0,0,8.386,0l25.332-25.332A7.026,7.026,0,0,0,238.014,359.827Zm-61.108-1.213.4-.893,1.8,1.8,24.157,24.148-2.619,2.617L178.01,363.65l-.231-.232A4.318,4.318,0,0,1,176.906,358.614Zm26.75,31.762-.529.528a4.8,4.8,0,0,1-6.786,0l-.075-.076-22.717-22.716-.231-.231a4.318,4.318,0,0,1-.873-4.8l.4-.894,1.806,1.8,23.728,23.721a1.92,1.92,0,0,0,2.715,0l.451-.452.035-.033,2.074-2.075Zm1.034-6.263,3.922-3.922,22.448-22.449.4.894a4.318,4.318,0,0,1-.872,4.8l-19.353,19.352-4.424,4.425h0l-2.123,2.124Zm30.369-16.2-23,23a4.8,4.8,0,0,1-6.787,0l-.145-.145,2.689-2.689a1.921,1.921,0,0,0,2.212-.362l25.5-25.5.4.893A4.318,4.318,0,0,1,235.059,367.909Z" transform="translate(-168.387 -326.328)" fill="#fff"/>
      <g id="组_1053" data-name="组 1053" transform="translate(13.273)">
        <g id="组_1052" data-name="组 1052">
          <path id="路径_640" data-name="路径 640" d="M288.779,157.248v7.373a.937.937,0,0,1-.268.654l-14.554,14.558a.924.924,0,0,1-.654.272H265.93Z" transform="translate(-265.93 -157.248)" fill="#fff"/>
          <path id="路径_641" data-name="路径 641" d="M287.806,356.115l-.392-.392-7.629-7.629-12.278-12.275-.033-.034-1.545-1.545H273.3a.923.923,0,0,1,.654.271l13.581,13.579a.937.937,0,0,1,.268.654Z" transform="translate(-265.93 -310.157)" fill="#fff"/>
          <path id="路径_642" data-name="路径 642" d="M363.669,221.723l1.374,1.373a.937.937,0,0,1,.268.654v7.373l-.392-.392c-3.074-3.074-6.2-6.206-9.277-9.279l1.545-1.544.033-.034,7.1-7.1,7.975-7.984.392-.392v7.372a.933.933,0,0,1-.27.654l-8.381,8.392-.637.637Z" transform="translate(-343.435 -197.981)" fill="#fff"/>
          <path id="路径_643" data-name="路径 643" d="M456.057,335.825l-.033.034-12.278,12.275-7.629,7.629-.392.392v-7.372a.937.937,0,0,1,.268-.654l13.581-13.579a.92.92,0,0,1,.654-.271H457.6Z" transform="translate(-412.621 -310.191)" fill="#fff"/>
          <path id="路径_644" data-name="路径 644" d="M450.262,265.342a.926.926,0,0,1-.652-.272l-1.651-1.647-.173.174-3.048,3.05-.046.044-.914.914-7.63,7.629-.392.392v-7.373a.933.933,0,0,1,.27-.654l7.786-7.783.023-.023,3.475-3.473.024-.025.211-.21a.586.586,0,0,1,.417-.176.6.6,0,0,1,.42.176l3.457,3.46,4.217,4.22.012.012,1.565,1.565Z" transform="translate(-412.647 -242.485)" fill="#fff"/>
        </g>
      </g>
    </g>
    <text id="GOVERNOR_CUP_INDUSTRIAL_DESIGN_COMPETITION_OF_SHANDONG_TEXTILE_AND_APPAREL_DIVISION" data-name="GOVERNOR CUP
INDUSTRIAL DESIGN COMPETITION OF SHANDONG
TEXTILE AND APPAREL DIVISION" transform="translate(255.359 210.025)" fill="#fff" font-size="3" font-family="DIN-MediumAlternate, DIN Alternate" font-weight="500"><tspan x="0" y="0">GOVERNOR CUP</tspan><tspan x="0" y="4">INDUSTRIAL DESIGN COMPETITION OF SHANDONG</tspan><tspan x="0" y="8">TEXTILE AND APPAREL DIVISION</tspan></text>
    <text id="山东省工业设计大赛纺织服装分赛" transform="translate(255.359 200.398)" fill="#fff" font-size="5" font-family="YuGothicUI-Regular, Yu Gothic UI"><tspan x="0" y="0">山</tspan><tspan y="0" font-family="MicrosoftJhengHeiUIRegular, Microsoft JhengHei UI">东</tspan><tspan y="0">省工</tspan><tspan y="0" font-family="MicrosoftJhengHeiUIRegular, Microsoft JhengHei UI">业设计</tspan><tspan y="0">大</tspan><tspan y="0" font-family="MicrosoftJhengHeiUIRegular, Microsoft JhengHei UI">赛纺织</tspan><tspan y="0">服装分</tspan><tspan y="0" font-family="MicrosoftJhengHeiUIRegular, Microsoft JhengHei UI">赛</tspan></text>
  </g>
</svg>
