<svg xmlns="http://www.w3.org/2000/svg" width="276.999" height="94.035" viewBox="0 0 276.999 94.035">
  <g id="组_1055" data-name="组 1055" transform="translate(-168.387 -157.248)">
    <g id="组_1051" data-name="组 1051" transform="translate(284.385 170.786)">
      <g id="组_1050" data-name="组 1050">
        <g id="组_1049" data-name="组 1049">
          <g id="组_1048" data-name="组 1048">
            <path id="路径_637" data-name="路径 637" d="M815.466,246.226h22.358v3.313H815.466v-3.313Zm0,9.781h22.358v-3.274H815.466Zm22.358,3.194H815.466v3.237h22.358Zm-25.4-17.807a.772.772,0,0,0,.607-.3l1.1-1.4.013-.009,5.468-6.948H814.86a.775.775,0,0,0-.6.29q-3.348,4.178-6.691,8.362Zm21.889-8.652,5.72,8.318a.776.776,0,0,0,.637.336h4.555q-2.881-4.158-5.757-8.319a.773.773,0,0,0-.636-.333h-4.519Zm40.849,0h-1.139a.778.778,0,0,0-.5.186l-1.113.955h0l-.43.37-12.449,10.687h5.993a1.16,1.16,0,0,0,.747-.274l1.22-1.029,12.915-10.9h-5.239Zm-13.537,16.25,4.345,4.422,1.445,1.471h0l.974.991,7.2,7.328.005,0,1.546,1.573a1.152,1.152,0,0,0,.829.348h6.057l-15.878-16.135h14.018a.774.774,0,0,0,.773-.774v-2.343H856.8v-14.03h-4.285v14.03h-5.181v3.117h5.181v15.353a1.366,1.366,0,0,0,1.366,1.365h6.352a.773.773,0,0,0,.773-.773V262.32h-4.362V248.992h4.98ZM923.891,235.2v-2.461H904.8v3.234h4.21l-6.275,23.577h3.453a1.158,1.158,0,0,0,1.125-.881l.267-1.064L912.36,239.7v25.936H915.8a.774.774,0,0,0,.773-.773v-25.3H912.4l.956-3.585h9.766A.774.774,0,0,0,923.891,235.2Zm-5.668,7.243,2.6,16.185.047.289a.8.8,0,0,0,.788.674h3.315s-2.135-13.29-2.648-16.5a.805.805,0,0,0-.784-.65ZM887.8,263.53l3.089,0a.775.775,0,0,0,.774-.735q.545-10.585,1.088-21.17h-3.008a.773.773,0,0,0-.772.731l-.029.529Zm10.111-31.684h-4.129v4.17h-5.727v3.157h5.727v26.459h3.357a.773.773,0,0,0,.773-.773V239.173h4.752v-3.157H897.91Zm1.011,23.772h2.969a.772.772,0,0,0,.773-.773V241.628h-3.741ZM834.1,239.2a.775.775,0,0,0,.513-.729v-3.16l-2.75.979c-.15.06-2.164.78-3.275,1.175v-5.624h-4.4v7.07l-16.052,5.923a.774.774,0,0,0-.505.726v3.421l3.43-1.267v16.549a1.367,1.367,0,0,0,1.366,1.366h28.43a1.366,1.366,0,0,0,1.365-1.366V244.4a1.366,1.366,0,0,0-1.365-1.366H823.75Z" transform="translate(-807.565 -231.846)" fill="#1a1211" fill-rule="evenodd"/>
          </g>
        </g>
      </g>
    </g>
    <g id="组_1054" data-name="组 1054" transform="translate(168.387 157.248)">
      <path id="路径_638" data-name="路径 638" d="M261.252,362.119l-9.161-9.162-35.9,35.9-35.9-35.9-9.162,9.162a9.371,9.371,0,0,0,0,13.253l33.786,33.786a7.908,7.908,0,0,0,11.184,0l.09-.09.09.09a7.909,7.909,0,0,0,11.184,0l33.786-33.786A9.371,9.371,0,0,0,261.252,362.119Zm-81.5-1.618.536-1.192,2.407,2.407,32.219,32.208-3.493,3.491-30.2-30.2-.309-.309A5.759,5.759,0,0,1,179.749,360.5Zm35.678,42.362-.706.7a6.4,6.4,0,0,1-9.051,0l-.1-.1-30.3-30.3-.309-.309a5.759,5.759,0,0,1-1.165-6.408l.537-1.192,2.409,2.407,31.648,31.638a2.56,2.56,0,0,0,3.621,0l.6-.6.047-.044,2.766-2.768Zm1.379-8.353,5.231-5.231,29.94-29.941.537,1.192a5.759,5.759,0,0,1-1.163,6.408L225.539,392.75l-5.9,5.9h0l-2.831,2.833Zm40.5-21.612-30.678,30.678a6.4,6.4,0,0,1-9.052,0l-.193-.193,3.586-3.586a2.561,2.561,0,0,0,2.95-.483L257.937,365.3l.537,1.192A5.759,5.759,0,0,1,257.31,372.9Z" transform="translate(-168.387 -317.44)" fill="#dc000c"/>
      <g id="组_1053" data-name="组 1053" transform="translate(17.702)">
        <g id="组_1052" data-name="组 1052">
          <path id="路径_640" data-name="路径 640" d="M296.4,157.248v9.834a1.25,1.25,0,0,1-.358.872L276.636,187.37a1.233,1.233,0,0,1-.872.363H265.93Z" transform="translate(-265.93 -157.248)" fill="#dc000c"/>
          <path id="路径_641" data-name="路径 641" d="M295.108,363.416l-.523-.523-10.175-10.175-16.376-16.372-.044-.045-2.06-2.06h9.834a1.231,1.231,0,0,1,.872.362l18.114,18.11a1.25,1.25,0,0,1,.358.872Z" transform="translate(-265.93 -302.119)" fill="#dc000c"/>
          <path id="路径_642" data-name="路径 642" d="M366.348,227.5l1.833,1.831a1.25,1.25,0,0,1,.358.872v9.834l-.523-.523c-4.1-4.1-8.273-8.277-12.373-12.375l2.06-2.06.044-.046,9.469-9.468,10.637-10.649.523-.523v9.832a1.244,1.244,0,0,1-.36.872l-11.178,11.193-.85.85Z" transform="translate(-339.361 -195.84)" fill="#dc000c"/>
          <path id="路径_643" data-name="路径 643" d="M462.842,336.34l-.044.045-16.376,16.372-10.175,10.175-.523.523v-9.832a1.25,1.25,0,0,1,.358-.872L454.2,334.641a1.228,1.228,0,0,1,.872-.362H464.9Z" transform="translate(-404.91 -302.152)" fill="#dc000c"/>
          <path id="路径_644" data-name="路径 644" d="M455.1,268.49a1.235,1.235,0,0,1-.87-.363l-2.2-2.2-.231.233-4.066,4.068c-.02.02-.042.04-.062.058l-1.219,1.219-10.177,10.175-.523.523v-9.834a1.244,1.244,0,0,1,.36-.872L446.5,261.12l.031-.031,4.634-4.632.033-.033.282-.28a.782.782,0,0,1,.556-.234.8.8,0,0,1,.56.234l4.611,4.614,5.624,5.628.016.016,2.087,2.087Z" transform="translate(-404.935 -238.005)" fill="#dc000c"/>
        </g>
      </g>
    </g>
    <text id="GOVERNOR_CUP_INDUSTRIAL_DESIGN_COMPETITION_OF_SHANDONG_TEXTILE_AND_APPAREL_DIVISION" data-name="GOVERNOR CUP
INDUSTRIAL DESIGN COMPETITION OF SHANDONG
TEXTILE AND APPAREL DIVISION" transform="translate(284.385 230.638)" fill="#1a1311" font-size="7" font-family="DIN-MediumAlternate, DIN Alternate" font-weight="500"><tspan x="0" y="0">GOVERNOR CUP</tspan><tspan x="0" y="8">INDUSTRIAL DESIGN COMPETITION OF SHANDONG</tspan><tspan x="0" y="16">TEXTILE AND APPAREL DIVISION</tspan></text>
    <text id="山东省工业设计大赛纺织服装分赛" transform="translate(284.385 219.131)" fill="#1a1311" font-size="10" font-family="YuGothicUI-Regular, Yu Gothic UI"><tspan x="0" y="0">山</tspan><tspan y="0" font-family="MicrosoftJhengHeiUIRegular, Microsoft JhengHei UI">东</tspan><tspan y="0">省工</tspan><tspan y="0" font-family="MicrosoftJhengHeiUIRegular, Microsoft JhengHei UI">业设计</tspan><tspan y="0">大</tspan><tspan y="0" font-family="MicrosoftJhengHeiUIRegular, Microsoft JhengHei UI">赛纺织</tspan><tspan y="0">服装分</tspan><tspan y="0" font-family="MicrosoftJhengHeiUIRegular, Microsoft JhengHei UI">赛</tspan></text>
  </g>
</svg>
