<svg xmlns="http://www.w3.org/2000/svg" width="276.998" height="88.513" viewBox="0 0 276.998 88.513">
  <g id="组_3206" data-name="组 3206" transform="translate(-168.387 -157.248)">
    <g id="组_3200" data-name="组 3200" transform="translate(277.573 169.991)">
      <g id="组_3199" data-name="组 3199" transform="translate(0 0)">
        <g id="组_3198" data-name="组 3198">
          <g id="组_3197" data-name="组 3197">
            <path id="路径_9067" data-name="路径 9067" d="M815,245.382h21.045V248.5H815v-3.118Zm0,9.206h21.045v-3.081H815Zm21.045,3.007H815v3.046h21.045Zm-23.9-16.761a.727.727,0,0,0,.571-.278l1.037-1.318.012-.008,5.147-6.54h-4.479a.729.729,0,0,0-.569.273q-3.152,3.933-6.3,7.87Zm20.6-8.144,5.384,7.829a.73.73,0,0,0,.6.316h4.287Q840.3,236.92,837.6,233a.728.728,0,0,0-.6-.314h-4.253Zm38.45,0h-1.072a.732.732,0,0,0-.474.175l-1.048.9h0l-.405.348-11.718,10.059h5.641a1.092,1.092,0,0,0,.7-.258l1.148-.969,12.156-10.255H871.2Zm-12.742,15.3,4.09,4.162,1.361,1.385h0l.917.933,6.776,6.9,0,0,1.455,1.481a1.085,1.085,0,0,0,.78.328h5.7l-14.946-15.187h13.195a.728.728,0,0,0,.728-.729v-2.205h-24.6V231.846h-4.033v13.206H845v2.934h4.877v14.452a1.285,1.285,0,0,0,1.285,1.285h5.979a.728.728,0,0,0,.728-.728V260.53h-4.106V247.985h4.688Zm58.605-12.979V232.69H899.093v3.044h3.963l-5.907,22.193h3.25a1.09,1.09,0,0,0,1.059-.83l.252-1,4.5-16.86v24.413h3.233a.729.729,0,0,0,.728-.728V239.109h-3.928l.9-3.375h9.192A.728.728,0,0,0,917.059,235.006Zm-5.335,6.818,2.446,15.235.044.272a.756.756,0,0,0,.742.634h3.121s-2.009-12.51-2.493-15.529a.758.758,0,0,0-.738-.612Zm-28.636,19.845,2.907,0a.729.729,0,0,0,.729-.692q.513-9.963,1.024-19.926h-2.832a.728.728,0,0,0-.727.688l-.027.5Zm9.517-29.823h-3.887v3.925h-5.391v2.972h5.391v24.905h3.16a.728.728,0,0,0,.727-.728V238.743h4.473v-2.972H892.6Zm.952,22.376h2.794a.727.727,0,0,0,.727-.728V241.053h-3.522Zm-61.01-15.45a.729.729,0,0,0,.483-.686v-2.975l-2.589.922c-.141.057-2.037.734-3.083,1.106v-5.294h-4.144V238.5l-15.109,5.575a.729.729,0,0,0-.475.683v3.22l3.228-1.193v15.577a1.286,1.286,0,0,0,1.286,1.286H838.9a1.286,1.286,0,0,0,1.285-1.286v-18.7a1.285,1.285,0,0,0-1.285-1.285H822.8Z" transform="translate(-807.565 -231.846)" fill="#1a1211" fill-rule="evenodd"/>
          </g>
        </g>
      </g>
    </g>
    <g id="组_3203" data-name="组 3203" transform="translate(168.387 157.248)">
      <path id="路径_9068" data-name="路径 9068" d="M255.8,361.581l-8.623-8.623-33.791,33.791-33.791-33.791-8.623,8.623a8.821,8.821,0,0,0,0,12.475l31.8,31.8a7.444,7.444,0,0,0,10.527,0l.085-.085.085.085a7.444,7.444,0,0,0,10.527,0l31.8-31.8A8.821,8.821,0,0,0,255.8,361.581Zm-76.716-1.523.5-1.122,2.266,2.266,30.327,30.316-3.287,3.286-28.424-28.424-.291-.291A5.421,5.421,0,0,1,179.082,360.059Zm33.582,39.874L212,400.6a6.023,6.023,0,0,1-8.519,0l-.094-.1-28.519-28.518-.291-.291a5.421,5.421,0,0,1-1.1-6.032l.505-1.122,2.267,2.266,29.789,29.78a2.41,2.41,0,0,0,3.408,0l.567-.567.044-.042,2.6-2.6Zm1.3-7.862,4.924-4.924,28.181-28.183.505,1.122a5.421,5.421,0,0,1-1.095,6.032l-24.3,24.3-5.554,5.555h0l-2.665,2.667Zm38.125-20.342L223.212,400.6a6.023,6.023,0,0,1-8.52,0l-.182-.182,3.376-3.375a2.411,2.411,0,0,0,2.776-.455l32.017-32.017.505,1.122A5.421,5.421,0,0,1,252.088,371.728Z" transform="translate(-168.387 -319.526)" fill="#dc000c"/>
      <g id="组_3202" data-name="组 3202" transform="translate(16.663)">
        <g id="组_3201" data-name="组 3201">
          <path id="路径_9070" data-name="路径 9070" d="M294.615,157.248V166.5a1.177,1.177,0,0,1-.337.821L276.007,185.6a1.16,1.16,0,0,1-.821.342H265.93Z" transform="translate(-265.93 -157.248)" fill="#dc000c"/>
          <path id="路径_9071" data-name="路径 9071" d="M293.394,361.7l-.492-.492-9.577-9.578-15.414-15.41-.041-.043-1.939-1.939h9.256a1.158,1.158,0,0,1,.821.34l17.05,17.047a1.177,1.177,0,0,1,.337.821Z" transform="translate(-265.93 -304.006)" fill="#dc000c"/>
          <path id="路径_9072" data-name="路径 9072" d="M365.719,226.148l1.725,1.724a1.176,1.176,0,0,1,.337.821v9.256l-.492-.492c-3.859-3.859-7.787-7.791-11.647-11.648l1.939-1.939.041-.043,8.912-8.912,10.012-10.024.492-.492v9.254a1.171,1.171,0,0,1-.339.821l-10.521,10.535-.8.8Z" transform="translate(-340.317 -196.343)" fill="#dc000c"/>
          <path id="路径_9073" data-name="路径 9073" d="M461.25,336.219l-.041.043-15.414,15.41-9.578,9.578-.492.492v-9.254a1.176,1.176,0,0,1,.337-.821l17.05-17.047a1.155,1.155,0,0,1,.821-.34h9.256Z" transform="translate(-406.72 -304.039)" fill="#dc000c"/>
          <path id="路径_9074" data-name="路径 9074" d="M453.968,267.752a1.162,1.162,0,0,1-.819-.342l-2.072-2.067-.217.219-3.827,3.829-.058.055-1.147,1.147-9.579,9.578-.492.492v-9.256a1.171,1.171,0,0,1,.339-.821l9.774-9.771.029-.029,4.362-4.36.031-.031.265-.263a.736.736,0,0,1,.523-.221.753.753,0,0,1,.527.221l4.34,4.343,5.294,5.3.015.015,1.965,1.965Z" transform="translate(-406.745 -239.056)" fill="#dc000c"/>
        </g>
      </g>
    </g>
    <g id="组_3204" data-name="组 3204" transform="translate(277.792 221.834)">
      <path id="路径_9075" data-name="路径 9075" d="M813.721,540.033a1.969,1.969,0,0,1-2.786.044c-.512-.512-.5-1.089-.5-2.091s-.007-1.579.5-2.091a1.863,1.863,0,0,1,1.367-.556,1.965,1.965,0,0,1,1.572.687l-.534.534a1.319,1.319,0,0,0-1.038-.512,1.062,1.062,0,0,0-.775.321c-.256.278-.307.57-.307,1.616s.051,1.345.307,1.623a1.057,1.057,0,0,0,.775.314,1.072,1.072,0,0,0,.834-.366,1.2,1.2,0,0,0,.256-.826v-.285H812.3v-.673h1.879v.782A1.966,1.966,0,0,1,813.721,540.033Z" transform="translate(-810.161 -535.339)" fill="#1a1311"/>
      <path id="路径_9076" data-name="路径 9076" d="M841.11,540.077a1.969,1.969,0,0,1-2.742,0c-.512-.512-.5-1.089-.5-2.091s-.007-1.579.5-2.091a1.968,1.968,0,0,1,2.742,0c.512.512.5,1.089.5,2.091S841.622,539.565,841.11,540.077Zm-.6-3.707a1.095,1.095,0,0,0-1.55,0c-.256.278-.307.57-.307,1.616s.051,1.338.307,1.616a1.094,1.094,0,0,0,1.55,0c.256-.278.307-.57.307-1.616S840.767,536.648,840.511,536.37Z" transform="translate(-832.907 -535.339)" fill="#1a1311"/>
      <path id="路径_9077" data-name="路径 9077" d="M864.756,540.8h-.614l-1.711-5.206h.819l1.2,3.787,1.2-3.787h.833Z" transform="translate(-853.278 -535.552)" fill="#1a1311"/>
      <path id="路径_9078" data-name="路径 9078" d="M890.336,540.8V535.6h3.327v.709h-2.537v1.521h2.164v.7h-2.164v1.565h2.537v.709Z" transform="translate(-876.416 -535.552)" fill="#1a1311"/>
      <path id="路径_9079" data-name="路径 9079" d="M919.017,540.8l-1.1-2.193h-.987V540.8h-.789V535.6h2.018a1.489,1.489,0,0,1,1.616,1.521,1.367,1.367,0,0,1-1.038,1.382l1.2,2.3Zm-.914-4.5h-1.17v1.63h1.17a.818.818,0,1,0,0-1.63Z" transform="translate(-897.815 -535.552)" fill="#1a1311"/>
      <path id="路径_9080" data-name="路径 9080" d="M947.372,540.8l-2.406-3.663V540.8h-.79V535.6h.724l2.405,3.656V535.6h.79V540.8Z" transform="translate(-921.06 -535.552)" fill="#1a1311"/>
      <path id="路径_9081" data-name="路径 9081" d="M977.209,540.077a1.969,1.969,0,0,1-2.742,0c-.512-.512-.5-1.089-.5-2.091s-.007-1.579.5-2.091a1.969,1.969,0,0,1,2.742,0c.512.512.5,1.089.5,2.091S977.721,539.565,977.209,540.077Zm-.6-3.707a1.095,1.095,0,0,0-1.55,0c-.256.278-.307.57-.307,1.616s.051,1.338.307,1.616a1.094,1.094,0,0,0,1.55,0c.256-.278.307-.57.307-1.616S976.866,536.648,976.61,536.37Z" transform="translate(-945.758 -535.339)" fill="#1a1311"/>
      <path id="路径_9082" data-name="路径 9082" d="M1005.6,540.8l-1.1-2.193h-.987V540.8h-.79V535.6h2.018a1.489,1.489,0,0,1,1.616,1.521,1.367,1.367,0,0,1-1.038,1.382l1.2,2.3Zm-.914-4.5h-1.17v1.63h1.17a.818.818,0,1,0,0-1.63Z" transform="translate(-969.606 -535.552)" fill="#1a1311"/>
      <path id="路径_9083" data-name="路径 9083" d="M1041.787,540.633a1.886,1.886,0,0,1-1.367-.556c-.512-.512-.5-1.089-.5-2.091s-.007-1.579.5-2.091a1.887,1.887,0,0,1,1.367-.556,1.918,1.918,0,0,1,1.455.614l-.526.534a1.181,1.181,0,0,0-.929-.438,1.04,1.04,0,0,0-.768.314c-.256.278-.307.578-.307,1.623s.051,1.345.307,1.623a1.04,1.04,0,0,0,.768.314,1.181,1.181,0,0,0,.929-.439l.526.534A1.919,1.919,0,0,1,1041.787,540.633Z" transform="translate(-1000.444 -535.339)" fill="#1a1311"/>
      <path id="路径_9084" data-name="路径 9084" d="M1066.988,540.846a1.765,1.765,0,0,1-1.864-1.8V535.6h.79v3.414a1.079,1.079,0,1,0,2.157,0V535.6h.79v3.451A1.771,1.771,0,0,1,1066.988,540.846Z" transform="translate(-1021.346 -535.552)" fill="#1a1311"/>
      <path id="路径_9085" data-name="路径 9085" d="M1096.458,538.755h-1.184V540.8h-.79V535.6h1.974a1.582,1.582,0,1,1,0,3.159Zm-.044-2.449h-1.141v1.733h1.141a.868.868,0,1,0,0-1.733Z" transform="translate(-1045.691 -535.552)" fill="#1a1311"/>
      <path id="路径_9086" data-name="路径 9086" d="M811.544,592.161v-5.206h.789v5.206Z" transform="translate(-811.084 -578.138)" fill="#1a1311"/>
      <path id="路径_9087" data-name="路径 9087" d="M827.321,592.161l-2.406-3.663v3.663h-.79v-5.206h.724l2.405,3.656v-3.656h.79v5.206Z" transform="translate(-821.516 -578.138)" fill="#1a1311"/>
      <path id="路径_9088" data-name="路径 9088" d="M858.2,591.671a1.858,1.858,0,0,1-1.345.49h-1.828v-5.206h1.828a1.858,1.858,0,0,1,1.345.49,2.692,2.692,0,0,1,.526,2.076A2.868,2.868,0,0,1,858.2,591.671Zm-.541-3.656a1.126,1.126,0,0,0-.885-.351h-.958v3.787h.958a1.126,1.126,0,0,0,.885-.351,2.525,2.525,0,0,0,.278-1.579C857.937,588.8,857.93,588.315,857.659,588.015Z" transform="translate(-847.139 -578.138)" fill="#1a1311"/>
      <path id="路径_9089" data-name="路径 9089" d="M884.923,592.2a1.765,1.765,0,0,1-1.864-1.8v-3.451h.789v3.414a1.079,1.079,0,1,0,2.157,0v-3.414h.79v3.451A1.771,1.771,0,0,1,884.923,592.2Z" transform="translate(-870.382 -578.138)" fill="#1a1311"/>
      <path id="路径_9090" data-name="路径 9090" d="M911.565,591.991a2.357,2.357,0,0,1-1.842-.687l.526-.519a1.718,1.718,0,0,0,1.331.5c.68,0,1.075-.292,1.075-.8a.7.7,0,0,0-.2-.541.9.9,0,0,0-.57-.22l-.614-.088a1.781,1.781,0,0,1-.987-.417,1.3,1.3,0,0,1-.38-.994,1.539,1.539,0,0,1,1.74-1.528,2.168,2.168,0,0,1,1.616.592l-.5.5a1.529,1.529,0,0,0-1.133-.4c-.614,0-.95.351-.95.812a.618.618,0,0,0,.2.483,1.159,1.159,0,0,0,.585.241l.592.088a1.723,1.723,0,0,1,.973.388,1.362,1.362,0,0,1,.424,1.068C913.436,591.421,912.654,591.991,911.565,591.991Z" transform="translate(-892.491 -577.925)" fill="#1a1311"/>
      <path id="路径_9091" data-name="路径 9091" d="M937.2,587.664v4.5h-.79v-4.5h-1.433v-.709h3.656v.709Z" transform="translate(-913.429 -578.138)" fill="#1a1311"/>
      <path id="路径_9092" data-name="路径 9092" d="M964.51,592.161l-1.1-2.193h-.987v2.193h-.79v-5.206h2.018a1.489,1.489,0,0,1,1.616,1.521,1.367,1.367,0,0,1-1.038,1.382l1.2,2.3Zm-.914-4.5h-1.17v1.63h1.17a.818.818,0,1,0,0-1.63Z" transform="translate(-935.537 -578.138)" fill="#1a1311"/>
      <path id="路径_9093" data-name="路径 9093" d="M989.67,592.161v-5.206h.79v5.206Z" transform="translate(-958.781 -578.138)" fill="#1a1311"/>
      <path id="路径_9094" data-name="路径 9094" d="M1002.226,592.161l-.358-1.045h-2.054l-.358,1.045h-.841l1.908-5.206h.636l1.908,5.206Zm-1.367-4.029-.812,2.31h1.6Z" transform="translate(-966.198 -578.138)" fill="#1a1311"/>
      <path id="路径_9095" data-name="路径 9095" d="M1029,592.161v-5.206h.79v4.5h2.508v.709Z" transform="translate(-991.394 -578.138)" fill="#1a1311"/>
      <path id="路径_9096" data-name="路径 9096" d="M1067.012,591.671a1.858,1.858,0,0,1-1.345.49h-1.828v-5.206h1.828a1.858,1.858,0,0,1,1.345.49,2.692,2.692,0,0,1,.526,2.076A2.868,2.868,0,0,1,1067.012,591.671Zm-.541-3.656a1.126,1.126,0,0,0-.885-.351h-.958v3.787h.958a1.126,1.126,0,0,0,.885-.351,2.525,2.525,0,0,0,.278-1.579C1066.749,588.8,1066.742,588.315,1066.471,588.015Z" transform="translate(-1020.281 -578.138)" fill="#1a1311"/>
      <path id="路径_9097" data-name="路径 9097" d="M1092.342,592.161v-5.206h3.327v.709h-2.537v1.521h2.164v.7h-2.164v1.565h2.537v.709Z" transform="translate(-1043.915 -578.138)" fill="#1a1311"/>
      <path id="路径_9098" data-name="路径 9098" d="M1117.3,591.991a2.358,2.358,0,0,1-1.843-.687l.526-.519a1.718,1.718,0,0,0,1.331.5c.68,0,1.075-.292,1.075-.8a.7.7,0,0,0-.2-.541.9.9,0,0,0-.57-.22l-.614-.088a1.781,1.781,0,0,1-.987-.417,1.3,1.3,0,0,1-.38-.994,1.539,1.539,0,0,1,1.74-1.528,2.168,2.168,0,0,1,1.616.592l-.5.5a1.529,1.529,0,0,0-1.133-.4c-.614,0-.95.351-.95.812a.619.619,0,0,0,.2.483,1.161,1.161,0,0,0,.585.241l.592.088a1.721,1.721,0,0,1,.972.388,1.361,1.361,0,0,1,.424,1.068C1119.167,591.421,1118.385,591.991,1117.3,591.991Z" transform="translate(-1063.078 -577.925)" fill="#1a1311"/>
      <path id="路径_9099" data-name="路径 9099" d="M1143.4,592.161v-5.206h.789v5.206Z" transform="translate(-1086.252 -578.138)" fill="#1a1311"/>
      <path id="路径_9100" data-name="路径 9100" d="M1158.16,591.392a1.969,1.969,0,0,1-2.786.044c-.512-.512-.5-1.089-.5-2.091s-.007-1.579.5-2.091a1.863,1.863,0,0,1,1.367-.556,1.965,1.965,0,0,1,1.572.687l-.534.534a1.318,1.318,0,0,0-1.038-.512,1.063,1.063,0,0,0-.775.322c-.256.278-.307.57-.307,1.616s.051,1.345.307,1.623a1.058,1.058,0,0,0,.775.314,1.072,1.072,0,0,0,.834-.366,1.2,1.2,0,0,0,.256-.826v-.285h-1.089v-.673h1.879v.782A1.965,1.965,0,0,1,1158.16,591.392Z" transform="translate(-1095.762 -577.925)" fill="#1a1311"/>
      <path id="路径_9101" data-name="路径 9101" d="M1186.612,592.161l-2.406-3.663v3.663h-.79v-5.206h.724l2.405,3.656v-3.656h.79v5.206Z" transform="translate(-1119.432 -578.138)" fill="#1a1311"/>
      <path id="路径_9102" data-name="路径 9102" d="M1225.347,591.991a1.886,1.886,0,0,1-1.367-.556c-.512-.512-.5-1.089-.5-2.091s-.007-1.579.5-2.091a1.886,1.886,0,0,1,1.367-.556,1.918,1.918,0,0,1,1.455.614l-.526.534a1.18,1.18,0,0,0-.929-.439,1.04,1.04,0,0,0-.768.314c-.256.278-.307.578-.307,1.623s.051,1.345.307,1.623a1.041,1.041,0,0,0,.768.314,1.18,1.18,0,0,0,.929-.439l.526.534A1.918,1.918,0,0,1,1225.347,591.991Z" transform="translate(-1152.647 -577.925)" fill="#1a1311"/>
      <path id="路径_9103" data-name="路径 9103" d="M1250.175,591.436a1.969,1.969,0,0,1-2.742,0c-.512-.512-.5-1.089-.5-2.091s-.007-1.579.5-2.091a1.969,1.969,0,0,1,2.742,0c.512.512.5,1.089.5,2.091S1250.687,590.924,1250.175,591.436Zm-.6-3.707a1.094,1.094,0,0,0-1.55,0c-.256.278-.307.57-.307,1.616s.051,1.338.307,1.616a1.094,1.094,0,0,0,1.55,0c.256-.278.307-.57.307-1.616S1249.832,588.007,1249.576,587.729Z" transform="translate(-1172.095 -577.925)" fill="#1a1311"/>
      <path id="路径_9104" data-name="路径 9104" d="M1279.492,592.161v-3.48l-1.2,2.537h-.585l-1.228-2.537v3.48h-.79v-5.206h.79l1.521,3.239,1.492-3.239h.789v5.206Z" transform="translate(-1195.943 -578.138)" fill="#1a1311"/>
      <path id="路径_9105" data-name="路径 9105" d="M1312.459,590.114h-1.184v2.047h-.79v-5.206h1.974a1.582,1.582,0,1,1,0,3.159Zm-.044-2.449h-1.141V589.4h1.141a.868.868,0,1,0,0-1.733Z" transform="translate(-1224.794 -578.138)" fill="#1a1311"/>
      <path id="路径_9106" data-name="路径 9106" d="M1337.405,592.161v-5.206h3.327v.709h-2.537v1.521h2.164v.7h-2.164v1.565h2.537v.709Z" transform="translate(-1247.116 -578.138)" fill="#1a1311"/>
      <path id="路径_9107" data-name="路径 9107" d="M1362.739,587.664v4.5h-.79v-4.5h-1.433v-.709h3.656v.709Z" transform="translate(-1266.279 -578.138)" fill="#1a1311"/>
      <path id="路径_9108" data-name="路径 9108" d="M1387.18,592.161v-5.206h.789v5.206Z" transform="translate(-1288.388 -578.138)" fill="#1a1311"/>
      <path id="路径_9109" data-name="路径 9109" d="M1399.289,587.664v4.5h-.79v-4.5h-1.433v-.709h3.656v.709Z" transform="translate(-1296.585 -578.138)" fill="#1a1311"/>
      <path id="路径_9110" data-name="路径 9110" d="M1423.729,592.161v-5.206h.79v5.206Z" transform="translate(-1318.693 -578.138)" fill="#1a1311"/>
      <path id="路径_9111" data-name="路径 9111" d="M1438.444,591.436a1.968,1.968,0,0,1-2.741,0c-.512-.512-.5-1.089-.5-2.091s-.007-1.579.5-2.091a1.968,1.968,0,0,1,2.741,0c.512.512.5,1.089.5,2.091S1438.956,590.924,1438.444,591.436Zm-.6-3.707a1.095,1.095,0,0,0-1.55,0c-.256.278-.307.57-.307,1.616s.051,1.338.307,1.616a1.094,1.094,0,0,0,1.55,0c.256-.278.307-.57.307-1.616S1438.1,588.007,1437.845,587.729Z" transform="translate(-1328.203 -577.925)" fill="#1a1311"/>
      <path id="路径_9112" data-name="路径 9112" d="M1467.154,592.161l-2.406-3.663v3.663h-.79v-5.206h.724l2.406,3.656v-3.656h.79v5.206Z" transform="translate(-1352.051 -578.138)" fill="#1a1311"/>
      <path id="路径_9113" data-name="路径 9113" d="M1507.264,591.436a1.969,1.969,0,0,1-2.742,0c-.512-.512-.5-1.089-.5-2.091s-.007-1.579.5-2.091a1.969,1.969,0,0,1,2.742,0c.512.512.5,1.089.5,2.091S1507.776,590.924,1507.264,591.436Zm-.6-3.707a1.094,1.094,0,0,0-1.55,0c-.256.278-.307.57-.307,1.616s.051,1.338.307,1.616a1.094,1.094,0,0,0,1.55,0c.256-.278.307-.57.307-1.616S1506.921,588.007,1506.665,587.729Z" transform="translate(-1385.267 -577.925)" fill="#1a1311"/>
      <path id="路径_9114" data-name="路径 9114" d="M1533.569,587.664v1.586h2.164v.709h-2.164v2.2h-.79v-5.206h3.327v.709Z" transform="translate(-1409.115 -578.138)" fill="#1a1311"/>
      <path id="路径_9115" data-name="路径 9115" d="M1567.234,591.991a2.357,2.357,0,0,1-1.843-.687l.526-.519a1.718,1.718,0,0,0,1.331.5c.68,0,1.075-.292,1.075-.8a.7.7,0,0,0-.2-.541.9.9,0,0,0-.57-.22l-.614-.088a1.781,1.781,0,0,1-.987-.417,1.3,1.3,0,0,1-.38-.994,1.539,1.539,0,0,1,1.74-1.528,2.168,2.168,0,0,1,1.616.592l-.5.5a1.529,1.529,0,0,0-1.133-.4c-.614,0-.95.351-.95.812a.618.618,0,0,0,.2.483,1.159,1.159,0,0,0,.585.241l.592.088a1.722,1.722,0,0,1,.973.388,1.361,1.361,0,0,1,.424,1.068C1569.105,591.421,1568.323,591.991,1567.234,591.991Z" transform="translate(-1436.156 -577.925)" fill="#1a1311"/>
      <path id="路径_9116" data-name="路径 9116" d="M1596.241,592.161v-2.274h-2.113v2.274h-.79v-5.206h.79v2.223h2.113v-2.223h.79v5.206Z" transform="translate(-1459.329 -578.138)" fill="#1a1311"/>
      <path id="路径_9117" data-name="路径 9117" d="M1622.886,592.161l-.358-1.045h-2.055l-.358,1.045h-.841l1.908-5.206h.636l1.908,5.206Zm-1.367-4.029-.812,2.31h1.6Z" transform="translate(-1480.835 -578.138)" fill="#1a1311"/>
      <path id="路径_9118" data-name="路径 9118" d="M1652.855,592.161l-2.406-3.663v3.663h-.79v-5.206h.724l2.405,3.656v-3.656h.79v5.206Z" transform="translate(-1506.03 -578.138)" fill="#1a1311"/>
      <path id="路径_9119" data-name="路径 9119" d="M1683.734,591.671a1.858,1.858,0,0,1-1.345.49h-1.828v-5.206h1.828a1.858,1.858,0,0,1,1.345.49,2.692,2.692,0,0,1,.526,2.076A2.868,2.868,0,0,1,1683.734,591.671Zm-.541-3.656a1.126,1.126,0,0,0-.885-.351h-.958v3.787h.958a1.126,1.126,0,0,0,.885-.351,2.525,2.525,0,0,0,.278-1.579C1683.471,588.8,1683.464,588.315,1683.193,588.015Z" transform="translate(-1531.653 -578.138)" fill="#1a1311"/>
      <path id="路径_9120" data-name="路径 9120" d="M1711.2,591.436a1.968,1.968,0,0,1-2.741,0c-.512-.512-.5-1.089-.5-2.091s-.007-1.579.5-2.091a1.968,1.968,0,0,1,2.741,0c.512.512.5,1.089.5,2.091S1711.708,590.924,1711.2,591.436Zm-.6-3.707a1.094,1.094,0,0,0-1.55,0c-.256.278-.307.57-.307,1.616s.051,1.338.307,1.616a1.094,1.094,0,0,0,1.55,0c.256-.278.307-.57.307-1.616S1710.853,588.007,1710.6,587.729Z" transform="translate(-1554.363 -577.925)" fill="#1a1311"/>
      <path id="路径_9121" data-name="路径 9121" d="M1739.907,592.161,1737.5,588.5v3.663h-.79v-5.206h.724l2.405,3.656v-3.656h.79v5.206Z" transform="translate(-1578.212 -578.138)" fill="#1a1311"/>
      <path id="路径_9122" data-name="路径 9122" d="M1769.788,591.392a1.969,1.969,0,0,1-2.786.044c-.512-.512-.5-1.089-.5-2.091s-.007-1.579.5-2.091a1.863,1.863,0,0,1,1.367-.556,1.966,1.966,0,0,1,1.572.687l-.534.534a1.318,1.318,0,0,0-1.038-.512,1.063,1.063,0,0,0-.775.322c-.256.278-.307.57-.307,1.616s.051,1.345.307,1.623a1.057,1.057,0,0,0,.775.314,1.072,1.072,0,0,0,.834-.366,1.2,1.2,0,0,0,.256-.826v-.285h-1.089v-.673h1.879v.782A1.965,1.965,0,0,1,1769.788,591.392Z" transform="translate(-1602.91 -577.925)" fill="#1a1311"/>
      <path id="路径_9123" data-name="路径 9123" d="M811.071,639.022v4.5h-.79v-4.5h-1.433v-.709H812.5v.709Z" transform="translate(-808.848 -620.723)" fill="#1a1311"/>
      <path id="路径_9124" data-name="路径 9124" d="M835.511,643.519v-5.206h3.327v.709H836.3v1.521h2.164v.7H836.3v1.565h2.537v.709Z" transform="translate(-830.956 -620.723)" fill="#1a1311"/>
      <path id="路径_9125" data-name="路径 9125" d="M860.932,643.519l-1.133-2-1.126,2h-.907l1.608-2.669-1.506-2.537h.907l1.023,1.865,1.031-1.865h.907l-1.506,2.537,1.616,2.669Z" transform="translate(-849.41 -620.723)" fill="#1a1311"/>
      <path id="路径_9126" data-name="路径 9126" d="M885.583,639.022v4.5h-.79v-4.5H883.36v-.709h3.656v.709Z" transform="translate(-870.632 -620.723)" fill="#1a1311"/>
      <path id="路径_9127" data-name="路径 9127" d="M910.023,643.519v-5.206h.79v5.206Z" transform="translate(-892.74 -620.723)" fill="#1a1311"/>
      <path id="路径_9128" data-name="路径 9128" d="M922.606,643.519v-5.206h.79v4.5H925.9v.709Z" transform="translate(-903.174 -620.723)" fill="#1a1311"/>
      <path id="路径_9129" data-name="路径 9129" d="M947.172,643.519v-5.206H950.5v.709h-2.537v1.521h2.164v.7h-2.164v1.565H950.5v.709Z" transform="translate(-923.543 -620.723)" fill="#1a1311"/>
      <path id="路径_9130" data-name="路径 9130" d="M983.225,643.519l-.358-1.046h-2.055l-.358,1.046h-.841l1.908-5.206h.636l1.908,5.206Zm-1.367-4.029-.812,2.31h1.6Z" transform="translate(-950.442 -620.723)" fill="#1a1311"/>
      <path id="路径_9131" data-name="路径 9131" d="M1013.194,643.519l-2.406-3.663v3.663H1010v-5.206h.724l2.405,3.656v-3.656h.79v5.206Z" transform="translate(-975.638 -620.723)" fill="#1a1311"/>
      <path id="路径_9132" data-name="路径 9132" d="M1044.073,643.029a1.858,1.858,0,0,1-1.345.49H1040.9v-5.206h1.828a1.858,1.858,0,0,1,1.345.49,2.692,2.692,0,0,1,.526,2.076A2.868,2.868,0,0,1,1044.073,643.029Zm-.541-3.656a1.126,1.126,0,0,0-.885-.351h-.958v3.787h.958a1.126,1.126,0,0,0,.885-.351,2.525,2.525,0,0,0,.278-1.579C1043.81,640.163,1043.8,639.673,1043.532,639.373Z" transform="translate(-1001.26 -620.723)" fill="#1a1311"/>
      <path id="路径_9133" data-name="路径 9133" d="M1079.648,643.519l-.358-1.046h-2.055l-.358,1.046h-.841l1.908-5.206h.636l1.908,5.206Zm-1.367-4.029-.812,2.31h1.6Z" transform="translate(-1030.394 -620.723)" fill="#1a1311"/>
      <path id="路径_9134" data-name="路径 9134" d="M1108.4,641.472h-1.185v2.047h-.79v-5.206h1.974a1.582,1.582,0,1,1,0,3.159Zm-.044-2.449h-1.141v1.733h1.141a.868.868,0,1,0,0-1.733Z" transform="translate(-1055.59 -620.723)" fill="#1a1311"/>
      <path id="路径_9135" data-name="路径 9135" d="M1135.318,641.472h-1.185v2.047h-.789v-5.206h1.974a1.582,1.582,0,1,1,0,3.159Zm-.044-2.449h-1.141v1.733h1.141a.868.868,0,1,0,0-1.733Z" transform="translate(-1077.913 -620.723)" fill="#1a1311"/>
      <path id="路径_9136" data-name="路径 9136" d="M1158.1,643.519l-.358-1.046h-2.054l-.358,1.046h-.841l1.908-5.206h.636l1.908,5.206Zm-1.367-4.029-.812,2.31h1.6Z" transform="translate(-1095.444 -620.723)" fill="#1a1311"/>
      <path id="路径_9137" data-name="路径 9137" d="M1187.747,643.519l-1.1-2.193h-.987v2.193h-.79v-5.206h2.018a1.489,1.489,0,0,1,1.616,1.521,1.367,1.367,0,0,1-1.038,1.382l1.2,2.3Zm-.914-4.5h-1.17v1.63h1.17a.818.818,0,1,0,0-1.63Z" transform="translate(-1120.64 -620.723)" fill="#1a1311"/>
      <path id="路径_9138" data-name="路径 9138" d="M1212.906,643.519v-5.206h3.327v.709H1213.7v1.521h2.164v.7H1213.7v1.565h2.537v.709Z" transform="translate(-1143.884 -620.723)" fill="#1a1311"/>
      <path id="路径_9139" data-name="路径 9139" d="M1238.714,643.519v-5.206h.79v4.5h2.508v.709Z" transform="translate(-1165.283 -620.723)" fill="#1a1311"/>
      <path id="路径_9140" data-name="路径 9140" d="M1276.725,643.029a1.858,1.858,0,0,1-1.345.49h-1.828v-5.206h1.828a1.858,1.858,0,0,1,1.345.49,2.692,2.692,0,0,1,.526,2.076A2.868,2.868,0,0,1,1276.725,643.029Zm-.541-3.656a1.126,1.126,0,0,0-.885-.351h-.958v3.787h.958a1.126,1.126,0,0,0,.885-.351,2.525,2.525,0,0,0,.278-1.579C1276.462,640.163,1276.455,639.673,1276.184,639.373Z" transform="translate(-1194.17 -620.723)" fill="#1a1311"/>
      <path id="路径_9141" data-name="路径 9141" d="M1302.055,643.519v-5.206h.79v5.206Z" transform="translate(-1217.804 -620.723)" fill="#1a1311"/>
      <path id="路径_9142" data-name="路径 9142" d="M1313.2,643.519h-.614l-1.711-5.206h.819l1.2,3.787,1.2-3.787h.833Z" transform="translate(-1225.114 -620.723)" fill="#1a1311"/>
      <path id="路径_9143" data-name="路径 9143" d="M1338.776,643.519v-5.206h.79v5.206Z" transform="translate(-1248.252 -620.723)" fill="#1a1311"/>
      <path id="路径_9144" data-name="路径 9144" d="M1350.5,643.349a2.358,2.358,0,0,1-1.843-.687l.526-.519a1.719,1.719,0,0,0,1.331.5c.68,0,1.075-.292,1.075-.8a.7.7,0,0,0-.2-.541.9.9,0,0,0-.57-.219L1350.2,641a1.782,1.782,0,0,1-.987-.417,1.3,1.3,0,0,1-.38-.995,1.539,1.539,0,0,1,1.74-1.528,2.167,2.167,0,0,1,1.616.592l-.5.5a1.529,1.529,0,0,0-1.133-.4c-.614,0-.95.351-.95.812a.619.619,0,0,0,.2.483,1.165,1.165,0,0,0,.585.241l.592.088a1.721,1.721,0,0,1,.972.388,1.361,1.361,0,0,1,.424,1.068C1352.376,642.779,1351.594,643.349,1350.5,643.349Z" transform="translate(-1256.45 -620.51)" fill="#1a1311"/>
      <path id="路径_9145" data-name="路径 9145" d="M1376.61,643.519v-5.206h.79v5.206Z" transform="translate(-1279.623 -620.723)" fill="#1a1311"/>
      <path id="路径_9146" data-name="路径 9146" d="M1391.324,642.794a1.968,1.968,0,0,1-2.742,0c-.512-.512-.5-1.089-.5-2.091s-.007-1.579.5-2.091a1.969,1.969,0,0,1,2.742,0c.512.512.5,1.09.5,2.091S1391.836,642.282,1391.324,642.794Zm-.6-3.707a1.094,1.094,0,0,0-1.55,0c-.256.278-.307.57-.307,1.616s.051,1.338.307,1.616a1.094,1.094,0,0,0,1.55,0c.256-.278.307-.57.307-1.616S1390.981,639.365,1390.725,639.087Z" transform="translate(-1289.133 -620.51)" fill="#1a1311"/>
      <path id="路径_9147" data-name="路径 9147" d="M1420.035,643.519l-2.405-3.663v3.663h-.79v-5.206h.724l2.405,3.656v-3.656h.79v5.206Z" transform="translate(-1312.981 -620.723)" fill="#1a1311"/>
    </g>
    <g id="组_3205" data-name="组 3205" transform="translate(278.761 207.762)">
      <path id="路径_9148" data-name="路径 9148" d="M823.382,456.415v7.939H822.3v-.807h-7.782v-7.1H815.6v6.033h2.781v-8.276h1.1v8.276H822.3v-6.066Z" transform="translate(-814.523 -453.993)" fill="#1a1311"/>
      <path id="路径_9149" data-name="路径 9149" d="M880.9,459.974a10.328,10.328,0,0,1-2.164,3.14,6.7,6.7,0,0,0-.875-.673,7.528,7.528,0,0,0,2-2.747Zm2.826-1.077v3.285c0,.572-.123.875-.516,1.043a4.624,4.624,0,0,1-1.772.2,4.692,4.692,0,0,0-.392-1.065c.617.011,1.211.022,1.391.011s.235-.056.235-.213V458.9h-2.388a2.524,2.524,0,0,0-1.234.18,10.859,10.859,0,0,0-.392-1.077c.292-.067.516-.37.875-.852a13.479,13.479,0,0,0,.942-1.469h-2.512v-1h3.05c.258-.493.493-1.009.706-1.525l1.133.426c-.168.37-.359.74-.538,1.1h5.046v1h-5.607a21.553,21.553,0,0,1-1.458,2.209h2.377v-1.525h1.054v1.525h3.14V458.9Zm1.648.8a16.584,16.584,0,0,1,2.276,2.758l-.942.5a16.9,16.9,0,0,0-2.209-2.837Z" transform="translate(-867.046 -453.122)" fill="#1a1311"/>
      <path id="路径_9150" data-name="路径 9150" d="M949.442,456.06a8.51,8.51,0,0,1-3.454,2.164h4.059v5.618H949v-.426H944.25v.482h-1V459.01c-.482.1-.976.191-1.458.269a7.994,7.994,0,0,0-.65-.908,20.256,20.256,0,0,0,4.609-1.043v-3.711h1.032v3.241a5.425,5.425,0,0,0,1.671-1.245Zm-4.777-1.559a9.252,9.252,0,0,1-2.142,2.871,5.643,5.643,0,0,0-.886-.617,6.744,6.744,0,0,0,2.007-2.546Zm4.34,4.53H944.25v.673H949Zm-4.754,2.119H949v-.707H944.25ZM949,462.62v-.729H944.25v.729Zm-.079-8.5a13.543,13.543,0,0,1,2.445,2.433l-.9.594a12.741,12.741,0,0,0-2.366-2.5Z" transform="translate(-919.514 -453.504)" fill="#1a1311"/>
      <path id="路径_9151" data-name="路径 9151" d="M1018.067,467.861V468.9h-10.036v-1.043h4.384v-6.145h-3.79v-1.077h8.858v1.077h-3.9v6.145Z" transform="translate(-974.975 -459.327)" fill="#1a1311"/>
      <path id="路径_9152" data-name="路径 9152" d="M1083.988,462.97V464h-9.857V462.97h3.016V454.4h1.065v8.567h1.693v-8.556h1.065v8.556Zm-8.208-1.906a32.532,32.532,0,0,0-1.435-4.048l.953-.3a38.918,38.918,0,0,1,1.525,3.97Zm8.051-3.857a33.137,33.137,0,0,1-1.861,3.936l-.864-.449a22.8,22.8,0,0,0,1.772-3.947Z" transform="translate(-1029.784 -454.156)" fill="#1a1311"/>
      <path id="路径_9153" data-name="路径 9153" d="M1142.364,461.575a5.15,5.15,0,0,0,.381.863,19.616,19.616,0,0,0-2.512,2.086,3.38,3.38,0,0,0-.549-.875,1.359,1.359,0,0,0,.561-1.043v-3.734h-1.458v-1h2.456v4.564ZM1141.288,457a12.34,12.34,0,0,0-1.7-1.761l.673-.639a13.194,13.194,0,0,1,1.738,1.671Zm7.1,2.534a6.946,6.946,0,0,1-2.052,3.252,8.252,8.252,0,0,0,2.725,1.032,3.615,3.615,0,0,0-.639.931,8.678,8.678,0,0,1-2.938-1.3,10.112,10.112,0,0,1-3.005,1.267,3.135,3.135,0,0,0-.5-.908,8.338,8.338,0,0,0,2.7-1.02,7.762,7.762,0,0,1-1.716-2.422l.292-.1h-.673v-.975h5l.157-.034Zm-3.745-3.476a3.081,3.081,0,0,1-1.94,3.039,3.957,3.957,0,0,0-.673-.763,2.323,2.323,0,0,0,1.648-2.31v-1.211h3.723v2.523c0,.314.022.426.191.426h.684a2.324,2.324,0,0,0,.561-.067c.011.269.045.639.079.875a2.073,2.073,0,0,1-.628.067h-.785c-.9,0-1.088-.37-1.088-1.334v-1.525h-1.772Zm-.718,4.2a6.044,6.044,0,0,0,1.592,1.951,5.772,5.772,0,0,0,1.548-1.951Z" transform="translate(-1083.395 -454.32)" fill="#1a1311"/>
      <path id="路径_9154" data-name="路径 9154" d="M1208.585,460.9a6.081,6.081,0,0,0,.325.942,17.733,17.733,0,0,0-2.691,2.074,3.785,3.785,0,0,0-.538-.975,1.165,1.165,0,0,0,.572-.976v-3.712h-1.693v-1.032h2.758v4.564Zm-1.3-4.553a15.629,15.629,0,0,0-1.783-1.749l.662-.673a13.6,13.6,0,0,1,1.828,1.66Zm7.479,2.108h-2.714v5.607h-1.11v-5.607h-2.759v-1.077h2.759v-3.566h1.11v3.566h2.714Z" transform="translate(-1137.932 -453.666)" fill="#1a1311"/>
      <path id="路径_9155" data-name="路径 9155" d="M1275.935,457.787a7.911,7.911,0,0,0,4.294,5.113,4.134,4.134,0,0,0-.774.976,8.586,8.586,0,0,1-4.328-5.169,7.755,7.755,0,0,1-4.328,5.169,3.634,3.634,0,0,0-.8-.875,6.976,6.976,0,0,0,4.2-5.214h-3.981v-1.077h4.172a28.162,28.162,0,0,0,.134-3.095h1.133a28.3,28.3,0,0,1-.157,3.095h4.519v1.077Z" transform="translate(-1192.197 -453.504)" fill="#1a1311"/>
      <path id="路径_9156" data-name="路径 9156" d="M1342.992,458.374a7.4,7.4,0,0,0,2.489,1.121,3.612,3.612,0,0,0-.639.807,6.8,6.8,0,0,1-1.312-.583v1.929h-.987v-1.772h-4.508v1.85h-.953v-1.974a7.591,7.591,0,0,1-1.413.65,4,4,0,0,0-.617-.763,8.312,8.312,0,0,0,2.635-1.267h-2.321v-.751h2.77v-.583h-1.458v-.583h1.458v-.572h-1.615v-.606h1.615v-.46h.976v.46h2.31v-.46h.976v.46h1.6v.606h-1.6v.572h1.491v.583H1342.4v.583h2.781v.751Zm-2.12,1.76c-.4,2.007-1.525,2.8-5.136,3.185a2.375,2.375,0,0,0-.4-.807c3.33-.269,4.183-.852,4.508-2.377Zm-4.451-4.552h-.953v-1.794h4.385a3.734,3.734,0,0,0-.281-.561l1.032-.269a4.9,4.9,0,0,1,.438.83h4.037v1.794h-.987V454.6h-7.67Zm6.178,3.51a6.071,6.071,0,0,1-.785-.718h-2.96a7.067,7.067,0,0,1-.8.718Zm-3.487-2.635h2.31v-.572h-2.31Zm0,1.166h2.31v-.583h-2.31Zm1.873,3.622a31.12,31.12,0,0,1,4.238,1.334l-.561.763a30.72,30.72,0,0,0-4.2-1.458Z" transform="translate(-1246.135 -452.958)" fill="#1a1311"/>
      <path id="路径_9157" data-name="路径 9157" d="M1404.376,459.159a7.848,7.848,0,0,0,.034.92c-2.859.5-3.263.606-3.521.751-.056-.213-.213-.74-.325-1.032a2.044,2.044,0,0,0,.875-.718,12.673,12.673,0,0,0,.987-1.222,5.981,5.981,0,0,0-1.6.291,9.715,9.715,0,0,0-.325-1.043c.213-.056.4-.3.639-.662a15.3,15.3,0,0,0,1.5-3.005l.942.471a18.644,18.644,0,0,1-1.749,3.129l1.234-.112a13.129,13.129,0,0,0,.74-1.278l.841.617a20.715,20.715,0,0,1-2.377,3.229Zm.157,2.949c-1.323.37-2.725.751-3.779,1.043l-.179-1.054c.976-.213,2.456-.583,3.857-.942Zm2.747-5.775c-.023.5-.045,1.009-.079,1.491h3.016s-.011.314-.022.449c-.123,3.308-.258,4.53-.605,4.934a1.056,1.056,0,0,1-.8.426,11.378,11.378,0,0,1-1.413.011,2.412,2.412,0,0,0-.314-1,11.965,11.965,0,0,0,1.233.056.429.429,0,0,0,.4-.146c.213-.247.359-1.245.46-3.756H1407.1c-.236,2.018-.83,3.824-2.388,4.99a2.762,2.762,0,0,0-.729-.762c2-1.424,2.164-3.992,2.232-6.694h-1.323v-1h2.534c-.112-.448-.325-1.11-.493-1.615l.987-.3c.213.538.471,1.245.583,1.671l-.7.246h2.983v1Z" transform="translate(-1300.399 -453.339)" fill="#1a1311"/>
      <path id="路径_9158" data-name="路径 9158" d="M1470.361,459.4a4.99,4.99,0,0,0-.011.908c-2.96.572-3.386.7-3.667.852a4.732,4.732,0,0,0-.314-.92c.269-.056.527-.325.875-.718a13.526,13.526,0,0,0,1.054-1.346,6.123,6.123,0,0,0-1.682.3,8.2,8.2,0,0,0-.347-.987c.224-.056.415-.3.662-.684a14.815,14.815,0,0,0,1.5-3.129l1,.46a17.994,17.994,0,0,1-1.817,3.263l1.29-.123c.247-.381.493-.807.706-1.211l.852.516a21.026,21.026,0,0,1-2.288,3.2Zm.022,3.028c-1.357.336-2.759.684-3.846.976l-.191-1.043c.976-.191,2.478-.516,3.925-.852Zm2.22-1.693a8.951,8.951,0,0,1-1.772,3.218,8.344,8.344,0,0,0-.931-.617,6.6,6.6,0,0,0,1.615-2.837Zm3.3-1.245h-5.136v-5.08h5.136Zm-1.076-4.082H1471.8V458.5h3.028Zm.168,5.046a15.456,15.456,0,0,1,1.514,3.016l-1.043.4a15.116,15.116,0,0,0-1.447-3.061Z" transform="translate(-1354.935 -453.558)" fill="#1a1311"/>
      <path id="路径_9159" data-name="路径 9159" d="M1535.98,464.626c0,.5-.09.819-.4.987a3.153,3.153,0,0,1-1.525.19,3.339,3.339,0,0,0-.281-1c.46.022.908.011,1.054.011s.19-.056.19-.213V462.08H1533.5a11.055,11.055,0,0,1-.807,3.745,3.5,3.5,0,0,0-.852-.482,13.6,13.6,0,0,0,.8-5.427v-4h3.342Zm-.964-3.532v-1.648h-1.435v.471c0,.359,0,.763-.022,1.177Zm-1.435-4.216v1.592h1.435v-1.592Zm8.432,3.05a9.639,9.639,0,0,1-1.446,3.734,5.763,5.763,0,0,0,1.783,1.346,3.58,3.58,0,0,0-.673.807,6.276,6.276,0,0,1-1.7-1.379,6.478,6.478,0,0,1-1.57,1.323,3.235,3.235,0,0,0-.606-.751v.8h-.987v-9.868h4.878v2.153c0,.482-.1.751-.493.886a5.984,5.984,0,0,1-1.817.146,3.648,3.648,0,0,0-.325-.886c.617.022,1.245.022,1.4.011.18,0,.236-.034.236-.168v-1.166H1537.8v2.837h3.443l.168-.034Zm-4.216,5.057a5.341,5.341,0,0,0,1.593-1.323A10.6,10.6,0,0,1,1538,460.7h-.2Zm1.088-4.283a1.315,1.315,0,1,0,2.007,0Z" transform="translate(-1409.308 -455.408)" fill="#1a1311"/>
      <path id="路径_9160" data-name="路径 9160" d="M1607.4,460.938a15.6,15.6,0,0,1-1.884,1.065,7.187,7.187,0,0,0,2.579.976,3.193,3.193,0,0,0-.583.852,6.368,6.368,0,0,1-4.654-3.51,7.441,7.441,0,0,1-1.659,1.132v1.267l2.6-.527a4.552,4.552,0,0,0-.067.841,22.6,22.6,0,0,0-3.824.931,2.8,2.8,0,0,0-.336-.819.764.764,0,0,0,.617-.729v-.5a11.515,11.515,0,0,1-1.861.583,5.3,5.3,0,0,0-.583-.763,10.739,10.739,0,0,0,3.813-1.424h-3.633v-.841h4.519c-.09-.224-.2-.449-.292-.628l1.021-.292a7.029,7.029,0,0,1,.46.92h4.306v.841h-4.082a5.027,5.027,0,0,0,.987,1.2,15.9,15.9,0,0,0,1.805-1.121Zm-7.109-3.588c-.774.359-1.548.706-2.187.987l-.347-.852c.65-.247,1.592-.65,2.534-1.065v-2.8h.964v5.27h-.964Zm-.886-1.379a7.849,7.849,0,0,0-1.368-1.2l.617-.594a6.672,6.672,0,0,1,1.39,1.133Zm4.822-.034h-2.534v-.9h2.534v-1.424h1.043v1.424h2.534v.9h-2.534v1.57h2.321v.908h-5.573v-.908h2.209Z" transform="translate(-1463.953 -453.504)" fill="#1a1311"/>
      <path id="路径_9161" data-name="路径 9161" d="M1670.878,454.535a12.186,12.186,0,0,0,3.185,4.037,4.153,4.153,0,0,0-.83.886,8.488,8.488,0,0,1-.83-.841c0,.124,0,.281-.011.37-.146,3.364-.3,4.653-.673,5.091a1.228,1.228,0,0,1-.931.437,12.328,12.328,0,0,1-1.738.011,2.473,2.473,0,0,0-.336-1.043c.673.056,1.323.056,1.581.056a.6.6,0,0,0,.471-.135c.258-.258.392-1.3.516-3.857h-2.747c-.292,2.164-1.02,4.127-3.857,5.147a3.314,3.314,0,0,0-.65-.908,4.538,4.538,0,0,0,3.409-4.239h-1.974v-.74a9.8,9.8,0,0,1-.8.751,6.109,6.109,0,0,0-.886-.807,9.451,9.451,0,0,0,3.084-4.194l1.11.325a12.94,12.94,0,0,1-2.242,3.633h6.582a17.586,17.586,0,0,1-2.4-3.588Z" transform="translate(-1518.708 -454.266)" fill="#1a1311"/>
      <path id="路径_9162" data-name="路径 9162" d="M1736.835,458.374a7.4,7.4,0,0,0,2.49,1.121,3.613,3.613,0,0,0-.639.807,6.8,6.8,0,0,1-1.312-.583v1.929h-.987v-1.772h-4.508v1.85h-.953v-1.974a7.588,7.588,0,0,1-1.413.65,3.99,3.99,0,0,0-.617-.763,8.311,8.311,0,0,0,2.635-1.267h-2.321v-.751h2.77v-.583h-1.458v-.583h1.458v-.572h-1.615v-.606h1.615v-.46h.976v.46h2.31v-.46h.976v.46h1.6v.606h-1.6v.572h1.491v.583h-1.491v.583h2.781v.751Zm-2.119,1.76c-.4,2.007-1.525,2.8-5.135,3.185a2.378,2.378,0,0,0-.4-.807c3.33-.269,4.183-.852,4.508-2.377Zm-4.451-4.552h-.953v-1.794h4.384a3.722,3.722,0,0,0-.28-.561l1.031-.269a4.875,4.875,0,0,1,.437.83h4.037v1.794h-.987V454.6h-7.67Zm6.178,3.51a6.077,6.077,0,0,1-.785-.718h-2.96a7.1,7.1,0,0,1-.8.718Zm-3.487-2.635h2.31v-.572h-2.31Zm0,1.166h2.31v-.583h-2.31Zm1.873,3.622a31.127,31.127,0,0,1,4.239,1.334l-.561.763a30.734,30.734,0,0,0-4.205-1.458Z" transform="translate(-1572.7 -452.958)" fill="#1a1311"/>
    </g>
  </g>
</svg>
